<?xml version="1.0" encoding="UTF-8"?>
<svg width="382px" height="298px" viewBox="0 0 382 298" version="1.1" xmlns="http://www.w3.org/2000/svg" xmlns:xlink="http://www.w3.org/1999/xlink">
    <!-- Generator: Sketch 58 (84663) - https://sketch.com -->
    <title>abstract-shapes-5</title>
    <desc>Created with Sketch.</desc>
    <defs>
        <rect id="path-1" x="0" y="0" width="390" height="297.631579"></rect>
    </defs>
    <g id="Page-1" stroke="none" stroke-width="1" fill="none" fill-rule="evenodd">
        <g id="abstract-shapes-5" transform="translate(-7.000000, 0.000000)">
            <mask id="mask-2" fill="white">
                <use xlink:href="#path-1"></use>
            </mask>
            <g id="Mask"></g>
            <g mask="url(#mask-2)">
                <g transform="translate(-41.052632, 0.000000)">
                    <g id="Group" stroke="none" stroke-width="1" fill="none" fill-rule="evenodd" transform="translate(165.322368, 42.763158)">
                        <path d="M99.2844382,54.2730308 C102.890074,64.3565447 107.483554,79.3829576 103.23582,89.3181849 C99.9759295,97.0291066 93.8512883,108.298917 86.1460942,106.766618 C79.6757073,98.4131191 66.4879714,80.9646853 57.992501,74.1434847 C50.9787989,68.5085799 40.2112842,62.6759591 33.395151,56.5467644 C16.5029949,41.3226355 9.98321538,20.6613177 0.598684211,0 C17.6884094,1.73001464 34.5805654,4.94289898 51.3245447,9.58922404 C62.0920594,12.6538214 73.20532,16.6081406 81.3550444,24.121347 C90.3938297,31.8816984 95.5306257,43.0032211 99.2844382,54.2730308 Z" id="Path" fill="#00C2C7" fill-rule="nonzero"></path>
                        <path d="M1.62891967,0.592321514 C21.4609368,10.0694658 39.7182032,22.4094972 55.3180778,37.6617762 C72.2466482,54.4442191 83.6143801,74.1389094 96.3108079,93.8335997 C96.5076518,94.4259216 97.6395037,93.8335997 97.0981837,93.2412778 C75.3469387,52.5191742 44.7377212,18.1645264 1.62891967,0 C1.62891967,0.0493601261 1.23523199,0.24680063 1.62891967,0.592321514 L1.62891967,0.592321514 Z" id="Path" fill="#93EBE3" fill-rule="nonzero"></path>
                        <path d="M13.0020172,26.6150317 C26.7791742,25.8151486 38.7722388,26.4150609 50.8148616,34.0639429 C51.6077915,34.6638552 52.3511633,33.2640599 51.6077915,32.7141402 C40.952796,25.6651705 25.4411049,21.365799 12.8533428,25.6651705 C12.4568779,26.0151194 12.4568779,26.6150317 13.0020172,26.6150317 L13.0020172,26.6150317 Z" id="Path" fill="#93EBE3" fill-rule="nonzero"></path>
                        <path d="M34.3494523,49.4630434 C40.9247212,49.4630434 47.3022377,49.264231 53.6797543,50.8050267 C59.4640135,52.14701 65.0999583,54.2842427 70.8842175,56.4214753 C71.6752273,56.6202877 71.8729798,55.6262259 71.0819699,55.079492 C59.4640135,50.8050267 46.3134755,45.735312 33.9539474,48.8666063 C34.2011379,49.264231 34.2011379,49.4630434 34.3494523,49.4630434 L34.3494523,49.4630434 Z" id="Path" fill="#93EBE3" fill-rule="nonzero"></path>
                        <path d="M59.8104145,69.8653383 C64.2782929,70.0677369 69.1433162,70.6749328 73.6111947,71.4339278 C78.8733627,72.445921 82.3483792,75.1783027 85.8233957,79.327475 C86.419113,79.9346709 87.3623314,79.1250763 86.8162579,78.3154817 C83.6887428,74.5711067 80.4122986,71.7881254 75.3487029,70.4219345 C70.2851073,69.4099413 64.8740101,69.0557437 59.6118421,69.4099413 C59.6118421,69.2581423 59.6118421,69.8653383 59.8104145,69.8653383 L59.8104145,69.8653383 Z" id="Path" fill="#93EBE3" fill-rule="nonzero"></path>
                        <path d="M41.6513158,11.4164094 C41.8443247,16.3737653 44.4981965,21.2825197 46.3800329,25.8510634 C47.6828427,28.7185536 48.6478869,33.627308 52.4115596,34.2105263 C52.6045685,34.2105263 52.9905862,34.0161202 52.6045685,33.627308 C46.3800329,28.475546 46.187024,18.2206234 42.0373335,11.3678078 C42.0373335,11.0275972 41.6513158,11.0275972 41.6513158,11.4164094 L41.6513158,11.4164094 Z" id="Path" fill="#93EBE3" fill-rule="nonzero"></path>
                        <path d="M62.1776316,17.2524848 C63.4698219,30.8950257 67.5856874,44.2921973 72.2758598,57.0023343 C72.4672954,57.591221 73.5680502,57.1986299 73.2330379,56.8060388 C68.3514299,43.9486801 65.7670492,30.6987302 62.7519384,17.2524848 C62.5605028,17.0561893 62.1776316,17.0561893 62.1776316,17.2524848 L62.1776316,17.2524848 Z" id="Path" fill="#93EBE3" fill-rule="nonzero"></path>
                        <path d="M84.4144737,45.7735237 C84.4144737,57.3819046 87.2311828,69.3360671 89.0930745,80.7468586 C89.2840385,81.5372164 90.5730407,81.339627 90.3820775,80.5492691 C88.3292218,68.9408882 86.8492557,57.5794941 84.9873636,45.7735237 C84.9396228,45.1807552 84.4144737,45.1807552 84.4144737,45.7735237 L84.4144737,45.7735237 Z" id="Path" fill="#93EBE3" fill-rule="nonzero"></path>
                    </g>
                    <path d="M362.546053,287.710526 C333.980263,283.947368 305.842105,280.013158 282.151316,260.684211 C265.046053,246.743421 253.243421,226.644737 249.138158,205.006579 C243.664474,176.526316 252.388158,142.572368 234.342105,117.513158 C224.677632,104.085526 209.368421,96.3026316 192.776316,96.4682484 C149.842105,96.9013158 133.421053,136.5 127.519737,173.105263 C120.677632,216.125 122.473684,263.25 83.4736842,291.901316 C60.4671053,308.835526 25.2302632,313.197368 7.95394737,338.085526 C-17.2763158,374.605263 26,410.526316 54.7368421,427.118421 C80.7368421,442.171053 106.651316,455.769737 135.046053,465.776316 C149.842105,470.993421 165.75,474.243421 181.144737,471.506579 C219.032895,464.578947 218.861842,425.236842 237.848684,399.407895 C247.940789,385.638158 262.394737,376.572368 278.901316,372.552632 C309.006579,365.197368 340.822368,369.644737 371.184211,371.953947 C400.263158,374.177632 439.092105,355.703947 428.914474,320.125 C424.210526,303.789474 408.730263,295.578947 393.078947,292.414474 C382.986842,290.447368 372.723684,289.078947 362.546053,287.710526 Z" id="Path" stroke="none" fill="#E1FBF8" fill-rule="nonzero"></path>
                    <path d="M242.125,116.743421 C293.868421,78.5986842 367.677632,116.486842 365.197368,180.802632 C365.197368,181.657895 365.111842,182.513158 365.111842,183.282895 C360.236842,264.532895 474.842105,278.559211 409.5,317.217105 C344.157895,355.875 413.861842,383.072368 348.263158,409.072368 C282.578947,435.072368 245.375,488.782895 165.151316,398.723684 C92.1118421,316.703947 36.9473684,349.203947 50.8881579,279.328947 C53.4539474,266.328947 55.0789474,253.072368 55.0789474,239.815789 C55.1644737,217.835526 66.0263158,178.921053 136.842105,163.611842 C183.111842,153.690789 217.921053,134.532895 242.125,116.743421 Z" id="Path" stroke="none" fill="#ACF0F1" fill-rule="nonzero"></path>
                    <path d="M339.539474,5.30263158 C339.453947,3.67763158 338.684211,2.22368421 337.401316,1.28289474 C335.434211,-0.171052632 332.184211,-0.598684211 327.651316,5.98684211 C320.467105,16.4210526 327.223684,15.9934211 328.164474,15.9078947 C328.25,15.9078947 328.335526,15.9078947 328.421053,15.9078947 L334.664474,15.4802632 C337.657895,15.3092105 339.967105,12.6578947 339.796053,9.66447368 L339.539474,5.30263158 Z" id="Path" stroke="#86F1F3" stroke-width="3" fill="none"></path>
                    <path d="M58.0106681,7.83454812 C57.9632419,6.94044088 57.5364055,6.14045021 56.8250113,5.62280912 C55.7342072,4.82281845 53.9320088,4.58752709 51.4184165,8.21101427 C47.4346096,13.9521239 51.1812851,13.7168325 51.7029741,13.6697742 C51.7504004,13.6697742 51.7978266,13.6697742 51.8452529,13.6697742 L55.3073707,13.4344829 C56.9672902,13.3403664 58.2477995,11.8815598 58.152947,10.2345201 L58.0106681,7.83454812 Z" id="Path-Copy-2" stroke="#86F1F3" stroke-width="2" fill="none" transform="translate(53.881579, 9.407895) rotate(80.000000) translate(-53.881579, -9.407895) "></path>
                    <path d="M126.490611,102.542834 C126.462156,102.00637 126.206053,101.526375 125.779217,101.215791 C125.124735,100.735797 124.043415,100.594622 122.53526,102.768714 C120.144976,106.21338 122.392981,106.072205 122.705995,106.043969 C122.73445,106.043969 122.762907,106.043969 122.791362,106.043969 L124.868633,105.902795 C125.864584,105.846325 126.63289,104.971041 126.575979,103.982818 L126.490611,102.542834 Z" id="Path-Copy-3" stroke="#86F1F3" stroke-width="1" fill="none" transform="translate(124.013158, 103.486842) rotate(120.000000) translate(-124.013158, -103.486842) "></path>
                </g>
            </g>
        </g>
    </g>
</svg>