<svg height="512pt" viewBox="-73 0 512 512" width="512pt" xmlns="http://www.w3.org/2000/svg"><path d="m59.519531 445.921875c0 36.492187 29.582031 66.078125 66.074219 66.078125s62.773438-22.394531 75.988281-66.078125c10.167969-33.597656 34.015625-62.320313 51.761719-80.394531 90.304688-91.957032 90.304688-209.242188 90.304688-209.242188 0-78.460937-63.605469-142.066406-142.066407-142.066406-78.460937 0-142.0625 63.605469-142.0625 142.066406zm0 0" fill="#ffe4c2"/><path d="m292.835938 47.410156c20.714843 24.683594 33.191406 56.511719 33.191406 91.253906 0 0 0 117.285157-90.304688 209.242188-17.746094 18.074219-41.59375 46.796875-51.757812 80.394531-13.214844 43.683594-39.496094 66.078125-75.988282 66.078125-13.746093 0-26.507812-4.199218-37.078124-11.378906 11.886718 17.5 31.949218 29 54.699218 29 36.492188 0 62.769532-22.394531 75.988282-66.078125 10.164062-33.597656 34.011718-62.320313 51.757812-80.394531 90.304688-91.957032 90.304688-209.242188 90.304688-209.242188 0-43.71875-19.75-82.8125-50.8125-108.875zm0 0" fill="#f2bb88"/><path d="m156.800781 384.046875c0 15.257813-12.578125 27.574219-27.929687 27.15625-14.796875-.40625-26.402344-12.917969-26.402344-27.722656v-61.816407c0-4.152343 2.644531-7.824218 6.570312-9.183593 9.621094-3.328125 26.417969-12.636719 26.417969-37.101563 0-24.386718-16.695312-33.71875-26.332031-37.070312-4.003906-1.394532-6.667969-5.183594-6.570312-9.421875 3.042968-136.609375 87.234374-135.910157 87.234374-135.910157s53.605469-2.667968 69.855469 46.570313c0 0 22.109375 64.511719-19.40625 136.804687-28.132812 48.996094-83.4375 88.613282-83.4375 107.695313zm0 0" fill="#f2bb88"/><path d="m109.039062 312.480469c-3.925781 1.359375-6.570312 5.03125-6.570312 9.183593v33.390626c20.660156-1.230469 30.535156-16.234376 37.230469-27.585938 20.164062-34.175781 35.542969-34.515625 46.132812-67.664062 12.328125-38.574219-16.65625-73.8125-47.15625-73.8125-19.550781 0-29.929687 12.628906-34.933593 21.964843-.613282 6.597657-1.023438 13.550781-1.1875 20.929688-.097657 4.238281 2.566406 8.027343 6.570312 9.421875 9.636719 3.351562 26.332031 12.679687 26.332031 37.070312 0 24.464844-16.796875 33.773438-26.417969 37.101563zm0 0" fill="#d6995c"/><path d="m155.722656 103.875c-5.105468 3.09375-10.394531 7.066406-15.570312 12.164062 3.378906.453126 46.242187 6.890626 57.449218 41.335938 1.046876 3.214844 4.027344 5.257812 7.234376 5.257812.78125 0 1.578124-.121093 2.359374-.375 3.996094-1.300781 6.183594-5.597656 4.882813-9.59375-10.105469-31.0625-38.855469-43.800781-56.355469-48.789062zm0 0" fill="#d6995c"/><g fill="#e04955"><path d="m115.789062 478.601562c-4.191406 0-7.59375-3.386718-7.609374-7.585937-.015626-4.203125 3.382812-7.621094 7.585937-7.636719 3.917969-.011718 7.878906-.128906 11.773437-.34375 4.199219-.222656 7.789063 2.980469 8.023438 7.179688.230469 4.195312-2.984375 7.789062-7.179688 8.019531-4.15625.230469-8.386718.355469-12.566406.367187-.007812 0-.015625 0-.027344 0zm-28.339843-1.625c-.300781 0-.605469-.015624-.910157-.054687-4.152343-.492187-8.339843-1.105469-12.449218-1.816406-4.140625-.714844-6.921875-4.652344-6.203125-8.796875.714843-4.140625 4.652343-6.921875 8.796875-6.203125 3.847656.667969 7.769531 1.238281 11.65625 1.703125 4.175781.496094 7.15625 4.28125 6.65625 8.457031-.460938 3.867187-3.746094 6.710937-7.546875 6.710937zm68.699219-2.035156c-3.613282 0-6.816407-2.582031-7.480469-6.261718-.746094-4.136719 2.003906-8.09375 6.140625-8.839844 3.847656-.695313 7.722656-1.496094 11.523437-2.390625 4.097657-.964844 8.1875 1.570312 9.152344 5.664062.960937 4.089844-1.574219 8.191407-5.664063 9.152344-4.058593.957031-8.203124 1.816406-12.3125 2.554687-.457031.082032-.910156.121094-1.359374.121094zm-108.390626-6.285156c-.730468 0-1.476562-.105469-2.214843-.332031-4-1.214844-8.015625-2.554688-11.9375-3.980469-3.953125-1.433594-5.992188-5.800781-4.558594-9.75 1.4375-3.953125 5.800781-5.992188 9.753906-4.558594 3.671875 1.335938 7.429688 2.589844 11.171875 3.726563 4.019532 1.222656 6.289063 5.472656 5.066406 9.496093-1 3.285157-4.015624 5.398438-7.28125 5.398438zm147.496094-4.394531c-3.089844 0-5.996094-1.898438-7.136718-4.964844-1.460938-3.941406.546874-8.324219 4.488281-9.785156 3.660156-1.359375 7.332031-2.832031 10.921875-4.386719 3.851562-1.667969 8.339844.105469 10.007812 3.964844 1.667969 3.855468-.105468 8.335937-3.960937 10.007812-3.835938 1.660156-7.761719 3.234375-11.671875 4.6875-.875.320313-1.769532.476563-2.648438.476563zm-185.097656-10.789063c-1.164062 0-2.347656-.269531-3.457031-.835937-.882813-.449219-1.757813-.90625-2.632813-1.367188-3.71875-1.957031-5.148437-6.5625-3.1875-10.28125 1.957032-3.71875 6.5625-5.144531 10.28125-3.183593.820313.429687 1.644532.855468 2.46875 1.277343 3.742188 1.914063 5.226563 6.5 3.3125 10.242188-1.34375 2.632812-4.015625 4.148437-6.785156 4.148437zm221.710938-6.617187c-2.609376 0-5.148438-1.339844-6.566407-3.75-2.132812-3.621094-.925781-8.289063 2.699219-10.421875 3.367188-1.984375 6.726562-4.082032 9.984375-6.238282 3.503906-2.316406 8.226563-1.359374 10.546875 2.144532 2.320312 3.507812 1.363281 8.230468-2.144531 10.550781-3.480469 2.300781-7.066407 4.542969-10.664063 6.664063-1.214844.710937-2.542968 1.050781-3.855468 1.050781zm0 0"/><path d="m359.277344 276.378906c-4.035156 0-7.398438-3.167968-7.597656-7.242187-.1875-3.917969-.472657-7.894531-.832032-11.808594-.390625-4.183594 2.6875-7.894531 6.875-8.28125 4.171875-.390625 7.890625 2.6875 8.28125 6.875.382813 4.136719.679688 8.332031.882813 12.476563.203125 4.199218-3.035157 7.765624-7.234375 7.972656-.125.003906-.25.007812-.375.007812zm-4.945313-40.238281c-3.554687 0-6.734375-2.507813-7.457031-6.128906-.765625-3.855469-1.628906-7.742188-2.5625-11.554688-1.003906-4.085937 1.496094-8.207031 5.578125-9.207031 4.078125-1.003906 8.203125 1.492188 9.207031 5.574219.988282 4.035156 1.898438 8.144531 2.710938 12.214843.820312 4.125-1.859375 8.132813-5.984375 8.949219-.5.101563-1 .152344-1.492188.152344zm-10.828125-39.074219c-3.117187 0-6.046875-1.929687-7.160156-5.039062-1.332031-3.699219-2.761719-7.414063-4.25-11.046875-1.597656-3.886719.261719-8.332031 4.148438-9.929688 3.890624-1.601562 8.335937.261719 9.933593 4.148438 1.574219 3.839843 3.085938 7.769531 4.492188 11.679687 1.421875 3.957032-.632813 8.316406-4.585938 9.738282-.851562.304687-1.722656.449218-2.578125.449218zm-16.492187-37.027344c-2.714844 0-5.339844-1.453124-6.714844-4.007812-1.859375-3.460938-3.820313-6.917969-5.824219-10.28125-2.15625-3.609375-.972656-8.28125 2.636719-10.4375 3.613281-2.152344 8.28125-.96875 10.4375 2.640625 2.121094 3.554687 4.191406 7.210937 6.160156 10.867187 1.988281 3.703126.601563 8.320313-3.097656 10.308594-1.148437.617188-2.382813.910156-3.597656.910156zm-21.777344-34.179687c-2.320313 0-4.613281-1.058594-6.105469-3.058594-2.355468-3.15625-4.804687-6.292969-7.28125-9.328125-2.660156-3.253906-2.179687-8.050781 1.074219-10.710937 3.257813-2.660157 8.054687-2.175781 10.710937 1.082031 2.621094 3.203125 5.210938 6.519531 7.695313 9.851562 2.515625 3.367188 1.820313 8.136719-1.546875 10.652344-1.367188 1.019532-2.964844 1.511719-4.546875 1.511719zm-26.566406-30.628906c-1.941407 0-3.882813-.738281-5.371094-2.214844-2.792969-2.78125-5.675781-5.527344-8.574219-8.167969-3.105468-2.828125-3.332031-7.644531-.5-10.75 2.832032-3.109375 7.644532-3.332031 10.753906-.503906 3.058594 2.789062 6.109376 5.691406 9.058594 8.628906 2.980469 2.964844 2.992188 7.785156.027344 10.765625-1.484375 1.492188-3.441406 2.242188-5.394531 2.242188zm-30.773438-26.417969c-1.570312 0-3.152343-.484375-4.515625-1.492188-3.167968-2.335937-6.421875-4.632812-9.683594-6.824218-3.488281-2.34375-4.414062-7.074219-2.070312-10.5625 2.347656-3.488282 7.074219-4.417969 10.5625-2.070313 3.445312 2.3125 6.890625 4.742188 10.234375 7.210938 3.382813 2.5 4.101563 7.265625 1.605469 10.644531-1.496094 2.023438-3.796875 3.09375-6.132813 3.09375zm-34.316406-21.625c-1.203125 0-2.425781-.289062-3.566406-.890625-3.472657-1.847656-7.035157-3.640625-10.589844-5.328125-3.796875-1.804688-5.410156-6.347656-3.605469-10.144531 1.804688-3.796875 6.347656-5.410157 10.140625-3.605469 3.761719 1.789062 7.527344 3.683594 11.199219 5.632812 3.710938 1.972657 5.121094 6.582032 3.148438 10.292969-1.367188 2.574219-4 4.042969-6.726563 4.042969zm-37.136719-16.324219c-.84375 0-1.699218-.140625-2.539062-.4375-3.710938-1.3125-7.503906-2.558593-11.273438-3.703125-4.019531-1.222656-6.289062-5.476562-5.066406-9.496094 1.222656-4.023437 5.472656-6.292968 9.496094-5.070312 3.984375 1.210938 7.996094 2.527344 11.921875 3.914062 3.960937 1.402344 6.039062 5.75 4.636719 9.714844-1.105469 3.125-4.042969 5.078125-7.175782 5.078125zm-39.148437-10.640625c-.480469 0-.964844-.046875-1.453125-.140625-3.855469-.746093-7.78125-1.414062-11.667969-1.988281-4.160156-.613281-7.03125-4.480469-6.421875-8.640625.613281-4.15625 4.484375-7.027344 8.644531-6.417969 4.109375.605469 8.257813 1.3125 12.332031 2.101563 4.128907.796875 6.828126 4.789062 6.03125 8.917969-.703124 3.640624-3.894531 6.167968-7.464843 6.167968zm-40.269531-4.734375c-.113282 0-.226563-.003906-.335938-.007812-3.917969-.167969-7.902344-.257813-11.839844-.257813-4.203125 0-7.609375-3.40625-7.609375-7.609375s3.40625-7.613281 7.609375-7.613281c4.15625 0 8.363282.09375 12.5.273438 4.199219.179687 7.457032 3.734374 7.273438 7.933593-.179688 4.085938-3.546875 7.28125-7.597656 7.28125zm0 0"/></g></svg>