<?xml version="1.0" encoding="iso-8859-1"?>
<!-- Generator: Adobe Illustrator 19.0.0, SVG Export Plug-In . SVG Version: 6.00 Build 0)  -->
<svg version="1.1" id="Layer_1" xmlns="http://www.w3.org/2000/svg" xmlns:xlink="http://www.w3.org/1999/xlink" x="0px" y="0px"
	 viewBox="0 0 511.996 511.996" style="enable-background:new 0 0 511.996 511.996;" xml:space="preserve">
<path style="fill:#EAC6BB;" d="M372.857,23.6C242.939-43.289,43.334,36.709,82.177,204.126l-19.476,23.562l-34.397,62.984
	l33.468,26.608l-1.391,44.733l13.375,19.171c0,0-15.929,59.843,8.421,68.327c45.413,15.843,98.888,8.046,98.888,8.046l2.664,54.438
	h225.925c0,0-22.359-112.842,11.593-160.762C455.199,303.296,565.947,123.003,372.857,23.6z"/>
<g style="opacity:0.2;">
	<path style="fill:#FFFFFF;" d="M159.738,457.558c0,0-8.343,1.219-21.226,1.719c7.875,0.297,15.117,0.234,21.312,0L159.738,457.558z
		"/>
	<path style="fill:#FFFFFF;" d="M372.857,23.6C338.577,5.96,299.468-1.462,261.149,0.241c31.304,1.406,62.444,8.984,90.365,23.359
		c193.104,99.404,82.357,279.696,48.405,327.634c-33.953,47.92-11.594,160.762-11.594,160.762h21.328
		c0,0-22.359-112.842,11.593-160.762C455.199,303.296,565.947,123.003,372.857,23.6z"/>
</g>
<g>
	<path style="fill:#ED5564;" d="M227.697,309.327c0,5.891-4.773,10.672-10.664,10.672s-10.672-4.781-10.672-10.672
		s4.781-10.672,10.672-10.672S227.697,303.436,227.697,309.327z"/>
	<path style="fill:#ED5564;" d="M185.034,351.999c0,5.89-4.781,10.655-10.671,10.655c-5.891,0-10.664-4.766-10.664-10.655
		c0-5.891,4.773-10.672,10.664-10.672C180.253,341.327,185.034,346.108,185.034,351.999z"/>
	<path style="fill:#ED5564;" d="M142.363,224c0,5.891-4.773,10.656-10.664,10.656S121.035,229.89,121.035,224
		s4.773-10.671,10.664-10.671C137.59,213.329,142.363,218.11,142.363,224z"/>
	<path style="fill:#ED5564;" d="M99.7,267.048c0,5.875-4.773,10.655-10.664,10.655s-10.671-4.78-10.671-10.655
		c0-5.906,4.781-10.672,10.671-10.672S99.7,261.142,99.7,267.048z"/>
	<path style="fill:#ED5564;" d="M142.363,309.327c0,5.891-4.773,10.672-10.664,10.672s-10.664-4.781-10.664-10.672
		s4.773-10.672,10.664-10.672C137.59,298.655,142.363,303.436,142.363,309.327z"/>
	<path style="fill:#ED5564;" d="M185.034,267.048c0,5.875-4.781,10.655-10.671,10.655c-5.891,0-10.664-4.78-10.664-10.655
		c0-5.906,4.773-10.672,10.664-10.672C180.253,256.375,185.034,261.142,185.034,267.048z"/>
	<path style="fill:#ED5564;" d="M227.697,224c0,5.891-4.773,10.656-10.664,10.656S206.361,229.89,206.361,224
		s4.781-10.671,10.672-10.671C222.924,213.33,227.697,218.11,227.697,224z"/>
	<path style="fill:#ED5564;" d="M227.697,394.653c0,5.891-4.773,10.672-10.664,10.672s-10.672-4.781-10.672-10.672
		s4.782-10.656,10.673-10.656C222.924,383.997,227.697,388.763,227.697,394.653z"/>
	<path style="fill:#ED5564;" d="M142.363,394.653c0,5.891-4.773,10.672-10.664,10.672s-10.664-4.781-10.664-10.672
		s4.774-10.656,10.665-10.656C137.591,383.997,142.363,388.763,142.363,394.653z"/>
	<path style="fill:#ED5564;" d="M270.36,351.999c0,5.89-4.773,10.655-10.664,10.655c-5.89,0-10.664-4.766-10.664-10.655
		c0-5.891,4.773-10.672,10.664-10.672C265.587,341.327,270.36,346.108,270.36,351.999z"/>
	<path style="fill:#ED5564;" d="M270.36,267.048c0,5.875-4.773,10.655-10.664,10.655c-5.89,0-10.664-4.78-10.664-10.655
		c0-5.906,4.773-10.672,10.664-10.672C265.587,256.375,270.36,261.142,270.36,267.048z"/>
</g>
<g>
</g>
<g>
</g>
<g>
</g>
<g>
</g>
<g>
</g>
<g>
</g>
<g>
</g>
<g>
</g>
<g>
</g>
<g>
</g>
<g>
</g>
<g>
</g>
<g>
</g>
<g>
</g>
<g>
</g>
</svg>
