<?xml version="1.0" encoding="UTF-8"?>
<svg width="165px" height="28px" viewBox="0 0 165 28" version="1.1" xmlns="http://www.w3.org/2000/svg" xmlns:xlink="http://www.w3.org/1999/xlink">
    <!-- Generator: Sketch 57.1 (83088) - https://sketch.com -->
    <title>smartappt-logo</title>
    <desc>Created with Sketch.</desc>
    <defs>
        <polygon id="path-1" points="0 0.356695652 13.7324986 0.356695652 13.7324986 17.497971 0 17.497971"></polygon>
        <polygon id="path-3" points="0.160695652 0.356898551 17.6266087 0.356898551 17.6266087 23.5362319 0.160695652 23.5362319"></polygon>
        <polygon id="path-5" points="0.0953217391 0.356898551 17.5612348 0.356898551 17.5612348 23.5362319 0.0953217391 23.5362319"></polygon>
        <polygon id="path-7" points="0.0300695652 0.324231884 10.8404638 0.324231884 10.8404638 21.224598 0.0300695652 21.224598"></polygon>
        <polygon id="path-9" points="6.2155942 0.0791304348 6.2155942 6.00336232 0.295014493 6.00336232 0.295014493 10.8368116 6.2155942 10.8368116 6.2155942 16.7614493 11.0526957 16.7614493 11.0526957 10.8368116 16.9732754 10.8368116 16.9732754 6.00336232 11.0526957 6.00336232 11.0526957 0.0791304348"></polygon>
        <linearGradient x1="24.731214%" y1="6.22192727%" x2="75.269006%" y2="93.7772469%" id="linearGradient-11">
            <stop stop-color="#4489FF" offset="0%"></stop>
            <stop stop-color="#00C852" offset="100%"></stop>
        </linearGradient>
    </defs>
    <g id="Page-1" stroke="none" stroke-width="1" fill="none" fill-rule="evenodd">
        <g id="smartappt-logo">
            <g id="Group-21" transform="translate(0.000000, 0.081443)">
                <g id="Group-3" transform="translate(0.000000, 4.057971)">
                    <mask id="mask-2" fill="white">
                        <use xlink:href="#path-1"></use>
                    </mask>
                    <g id="Clip-2"></g>
                    <path d="M13.7324986,12.173913 C13.7324986,15.9072464 10.4861217,17.497971 6.98003478,17.497971 C3.73325217,17.497971 1.2660058,16.2643478 -8.11594203e-05,13.6347826 L4.22061449,11.2324638 C4.64264348,12.466087 5.55162899,13.1474203 6.98003478,13.1474203 C8.14873043,13.1474203 8.73307826,12.7907246 8.73307826,12.1414493 C8.73307826,10.355942 0.746991304,11.2973913 0.746991304,5.68115942 C0.746991304,2.1426087 3.73325217,0.356695652 7.10988986,0.356695652 C9.73945507,0.356695652 12.0768464,1.5253913 13.4403246,3.83072464 L9.28496232,6.07031884 C8.83046957,5.22626087 8.1811942,4.64231884 7.10988986,4.64231884 C6.26583188,4.64231884 5.74641159,4.96695652 5.74641159,5.55130435 C5.74641159,7.40173913 13.7324986,6.16811594 13.7324986,12.173913" id="Fill-1" fill="#000000" mask="url(#mask-2)"></path>
                </g>
                <path d="M40.6775884,11.1350319 L40.6775884,21.1014087 L35.8080232,21.1014087 L35.8080232,11.5570609 C35.8080232,9.93387246 35.0288928,8.89462609 33.4702261,8.89462609 C31.8470377,8.89462609 30.938458,10.0312638 30.938458,11.9466261 L30.938458,21.1014087 L26.068487,21.1014087 L26.068487,11.5570609 C26.068487,9.93387246 25.2893565,8.89462609 23.7310957,8.89462609 C22.1079072,8.89462609 21.1989217,10.0312638 21.1989217,11.9466261 L21.1989217,21.1014087 L16.3293565,21.1014087 L16.3293565,4.86952464 L21.1989217,4.86952464 L21.1989217,6.36245217 C21.9455884,5.25908986 23.3739942,4.41462609 25.5494725,4.41462609 C27.464429,4.41462609 28.8928348,5.19375652 29.8018203,6.55764058 C30.7108058,5.25908986 32.2045449,4.41462609 34.5094725,4.41462609 C38.2428058,4.41462609 40.6775884,7.07706087 40.6775884,11.1350319" id="Fill-4" fill="#000000"></path>
                <path d="M55.8050145,12.9857101 C55.8050145,10.5505217 54.1818261,9.02472464 51.9418261,9.02472464 C49.7018261,9.02472464 48.0786377,10.5505217 48.0786377,12.9857101 C48.0786377,15.4204928 49.7018261,16.9458841 51.9418261,16.9458841 C54.1818261,16.9458841 55.8050145,15.4204928 55.8050145,12.9857101 L55.8050145,12.9857101 Z M60.6749855,4.86936232 L60.6749855,21.1016522 L55.8050145,21.1016522 L55.8050145,19.5758551 C54.7337101,20.8094783 53.1429855,21.5561449 50.967913,21.5561449 C46.7151594,21.5561449 43.2090725,17.8224058 43.2090725,12.9857101 C43.2090725,8.1482029 46.7151594,4.41486957 50.967913,4.41486957 C53.1429855,4.41486957 54.7337101,5.16153623 55.8050145,6.39515942 L55.8050145,4.86936232 L60.6749855,4.86936232 Z" id="Fill-6" fill="#000000"></path>
                <path d="M73.9842783,4.5448058 L73.9842783,10.0640522 C71.9715246,9.7390087 69.114713,10.5506029 69.114713,13.7645159 L69.114713,21.1013275 L64.2451478,21.1013275 L64.2451478,4.86944348 L69.114713,4.86944348 L69.114713,7.75871884 C69.7639884,5.58364638 71.9390609,4.5448058 73.9842783,4.5448058" id="Fill-8" fill="#000000"></path>
                <path d="M106.155386,12.9857101 C106.155386,10.5505217 104.532197,9.02472464 102.292197,9.02472464 C100.052197,9.02472464 98.4290087,10.5505217 98.4290087,12.9857101 C98.4290087,15.4204928 100.052197,16.9458841 102.292197,16.9458841 C104.532197,16.9458841 106.155386,15.4204928 106.155386,12.9857101 L106.155386,12.9857101 Z M111.025357,4.86936232 L111.025357,21.1016522 L106.155386,21.1016522 L106.155386,19.5758551 C105.084081,20.8094783 103.493357,21.5561449 101.318284,21.5561449 C97.0655304,21.5561449 93.5594435,17.8224058 93.5594435,12.9857101 C93.5594435,8.1482029 97.0655304,4.41486957 101.318284,4.41486957 C103.493357,4.41486957 105.084081,5.16153623 106.155386,6.39515942 L106.155386,4.86936232 L111.025357,4.86936232 Z" id="Fill-10" fill="#000000"></path>
                <g id="Group-14" transform="translate(114.434783, 4.057971)">
                    <mask id="mask-4" fill="white">
                        <use xlink:href="#path-3"></use>
                    </mask>
                    <g id="Clip-13"></g>
                    <path d="M12.7566377,8.92773913 C12.7566377,6.49255072 11.1334493,4.96675362 8.89344928,4.96675362 C6.65344928,4.96675362 5.03026087,6.49255072 5.03026087,8.92773913 C5.03026087,11.3625217 6.65344928,12.887913 8.89344928,12.887913 C11.1334493,12.887913 12.7566377,11.3625217 12.7566377,8.92773913 M17.6266087,8.92773913 C17.6266087,13.7644348 14.1201159,17.4981739 9.86736232,17.4981739 C7.69269565,17.4981739 6.10156522,16.7515072 5.03026087,15.5178841 L5.03026087,23.5364348 L0.160695652,23.5364348 L0.160695652,0.811391304 L5.03026087,0.811391304 L5.03026087,2.33718841 C6.10156522,1.10356522 7.69269565,0.356898551 9.86736232,0.356898551 C14.1201159,0.356898551 17.6266087,4.09023188 17.6266087,8.92773913" id="Fill-12" fill="#000000" mask="url(#mask-4)"></path>
                </g>
                <g id="Group-17" transform="translate(134.724638, 4.057971)">
                    <mask id="mask-6" fill="white">
                        <use xlink:href="#path-5"></use>
                    </mask>
                    <g id="Clip-16"></g>
                    <path d="M12.6912638,8.92773913 C12.6912638,6.49255072 11.0680754,4.96675362 8.82807536,4.96675362 C6.58807536,4.96675362 4.96488696,6.49255072 4.96488696,8.92773913 C4.96488696,11.3625217 6.58807536,12.887913 8.82807536,12.887913 C11.0680754,12.887913 12.6912638,11.3625217 12.6912638,8.92773913 M17.5612348,8.92773913 C17.5612348,13.7644348 14.054742,17.4981739 9.80198841,17.4981739 C7.62732174,17.4981739 6.0361913,16.7515072 4.96488696,15.5178841 L4.96488696,23.5364348 L0.0953217391,23.5364348 L0.0953217391,0.811391304 L4.96488696,0.811391304 L4.96488696,2.33718841 C6.0361913,1.10356522 7.62732174,0.356898551 9.80198841,0.356898551 C14.054742,0.356898551 17.5612348,4.09023188 17.5612348,8.92773913" id="Fill-15" fill="#000000" mask="url(#mask-6)"></path>
                </g>
                <g id="Group-20" transform="translate(153.391304, 0.000000)">
                    <mask id="mask-8" fill="white">
                        <use xlink:href="#path-7"></use>
                    </mask>
                    <g id="Clip-19"></g>
                    <path d="M7.49673623,9.54434783 L7.49673623,15.2904348 C7.49673623,16.6863768 8.69789565,16.8158261 10.8405043,16.6863768 L10.8405043,21.1014493 C4.4776058,21.7507246 2.62717101,19.8353623 2.62717101,15.2904348 L2.62717101,9.54434783 L0.0300695652,9.54434783 L0.0300695652,4.86915942 L2.62717101,4.86915942 L2.62717101,1.78510145 L7.49673623,0.324231884 L7.49673623,4.86915942 L10.8405043,4.86915942 L10.8405043,9.54434783 L7.49673623,9.54434783 Z" id="Fill-18" fill="#000000" mask="url(#mask-8)"></path>
                </g>
            </g>
            <g id="Group-24" transform="translate(75.072464, 4.545212)">
                <mask id="mask-10" fill="white">
                    <use xlink:href="#path-9"></use>
                </mask>
                <g id="Clip-23"></g>
                <polygon id="Fill-22" fill="url(#linearGradient-11)" mask="url(#mask-10)" points="6.2155942 0.0791304348 6.2155942 6.00336232 0.295014493 6.00336232 0.295014493 10.8368116 6.2155942 10.8368116 6.2155942 16.7614493 11.0526957 16.7614493 11.0526957 10.8368116 16.9732754 10.8368116 16.9732754 6.00336232 11.0526957 6.00336232 11.0526957 0.0791304348"></polygon>
            </g>
        </g>
    </g>
</svg>