<?xml version="1.0" encoding="UTF-8"?>
<svg width="1138px" height="799px" viewBox="0 0 1138 799" version="1.1" xmlns="http://www.w3.org/2000/svg" xmlns:xlink="http://www.w3.org/1999/xlink">
    <!-- Generator: Sketch 58 (84663) - https://sketch.com -->
    <title>4-02</title>
    <desc>Created with Sketch.</desc>
    <defs>
        <linearGradient x1="0.0575949367%" y1="49.9740506%" x2="18.9449367%" y2="49.9740506%" id="linearGradient-1">
            <stop stop-color="#FFFFFF" offset="0%"></stop>
            <stop stop-color="#F7E1FF" offset="0.6306674%"></stop>
            <stop stop-color="#EFC6FF" offset="1.36%"></stop>
            <stop stop-color="#E9B0FF" offset="2.2%"></stop>
            <stop stop-color="#E59FFF" offset="3.18%"></stop>
            <stop stop-color="#E194FF" offset="4.39%"></stop>
            <stop stop-color="#E08DFF" offset="6.08%"></stop>
            <stop stop-color="#DF8BFF" offset="10.8%"></stop>
            <stop stop-color="#DF8BFF" offset="11.88%"></stop>
        </linearGradient>
        <linearGradient x1="-4.88911023%" y1="49.9930336%" x2="14.9269588%" y2="49.9930336%" id="linearGradient-2">
            <stop stop-color="#FFFFFF" offset="0%"></stop>
            <stop stop-color="#F7E1FF" offset="0.6306674%"></stop>
            <stop stop-color="#EFC6FF" offset="1.36%"></stop>
            <stop stop-color="#E9B0FF" offset="2.2%"></stop>
            <stop stop-color="#E59FFF" offset="3.18%"></stop>
            <stop stop-color="#E194FF" offset="4.39%"></stop>
            <stop stop-color="#E08DFF" offset="6.08%"></stop>
            <stop stop-color="#DF8BFF" offset="10.8%"></stop>
            <stop stop-color="#DF8BFF" offset="11.88%"></stop>
        </linearGradient>
    </defs>
    <g id="Page-1" stroke="none" stroke-width="1" fill="none" fill-rule="evenodd">
        <g id="4-02" transform="translate(-1.000000, 0.000000)">
            <g id="Layer_28" transform="translate(1.000000, 68.000000)">
                <path d="M8.17,698.07 C5.56,698.07 2.94,698.07 0.33,698.07 C28.66,630.95 56.99,563.84 85.31,496.72 C94.95,498.14 104.58,499.56 114.22,500.98 C78.87,566.68 43.52,632.37 8.17,698.07 Z" id="Path" fill="#267070" fill-rule="nonzero"></path>
                <path d="M20.17,672.56 C17.56,672.56 14.94,672.56 12.33,672.56 C31.84,647.32 55.81,610.55 74.06,562.22 C86.99,527.96 93.73,496.68 97.32,471.21 C106.96,472.63 116.59,474.05 126.23,475.47 C90.87,541.17 55.52,606.86 20.17,672.56 Z" id="Path" fill="#4D8C8A" fill-rule="nonzero"></path>
                <path d="M36.66,644.96 C27.14,662.69 17.62,680.42 8.1,698.15 C5.5,698.16 2.91,698.16 0.31,698.17 C8.46,678.85 16.62,659.52 24.77,640.2" id="Path" fill="#124948" fill-rule="nonzero"></path>
                <ellipse id="Oval" fill="#D8D7F9" fill-rule="nonzero" cx="159.33" cy="475.9" rx="142.35" ry="31.09"></ellipse>
                <path d="M379.08,387.47 C378.84,387.23 378.59,387 378.34,386.76 C378.07,386.49 377.81,386.22 377.55,385.94 C376.17,384.6 374.53,383.39 373.08,382.04 L361.24,376.99 C361.24,376.99 297.71,426.68 296.68,428.17 C280.22,447.85 270.93,526.1 270.93,526.1 C286.81,506.81 301.16,492.67 311.15,483.47 C337.02,459.64 350.99,452.85 364.53,432.55 C374.8,417.15 379.57,401.85 381.98,390.57 C381.03,389.52 380.07,388.48 379.08,387.47 Z" id="Path" fill="#3D9BAA" fill-rule="nonzero" opacity="0.68"></path>
                <path d="M308.59,575.22 C304.81,587.34 298.46,602.23 287.26,617.31 C283.06,622.96 276.53,631.76 265.68,641.48 C257.74,648.59 240.51,662.46 231.65,676.71 C230.55,678.49 228.89,681.37 229.78,684.26 C231.1,688.57 237.19,689.03 245.47,693.6 C251.26,696.79 255.72,699.89 258.66,702.08 C252.87,703.86 248.46,703.75 245.69,703.42 C234.13,702.01 229.42,693.95 210.22,683.72 C207.63,682.34 205.49,681.3 204.2,680.69 C205.64,679.91 207.91,678.44 209.54,675.91 C210.91,673.79 211.26,671.84 211.4,671.03 C214.07,655.06 214.06,647.07 214.91,640.66 C216.56,628.12 220.49,602.03 227.26,567.8 C254.38,570.27 281.49,572.75 308.59,575.22 Z" id="Path" fill="#FFB8B8" fill-rule="nonzero"></path>
                <path d="M237.28,689.72 C236.58,689.58 235.92,689.51 235.25,689.5 C233.34,689.48 231.73,689.96 230.58,690.44 C223.94,689.09 218.85,687.55 216.11,686.44 C214.78,685.9 212.95,685.03 212.63,684.87 C210.7,683.95 209.66,683.36 208.65,682.65 C207.2,681.63 206.07,680.81 206.21,679.86 C206.3,679.3 206.79,678.89 207.19,678.63 C207.29,678.57 205.64,679.4 204.02,680.72 C203.01,681.54 202.25,682.29 201.74,682.83 C200.94,683.54 199.98,684.6 199.31,686.05 C198.81,687.12 198.2,688.44 198.62,689.8 C198.77,690.27 199.12,690.99 199.7,691.67 C199.7,691.67 199.96,692 200.3,692.27 C211.2,700.99 236.81,703.48 236.81,703.48 C238.82,703.68 241.79,703.93 245.43,704.12 C252.06,704.2 258.7,703.97 258.95,702.62 C259.01,702.28 258.65,701.96 258.41,701.77 C252.66,697.01 243.33,690.9 237.28,689.72 Z" id="Path" fill="#C60909" fill-rule="nonzero"></path>
                <path d="M229.59,561.99 C229.59,561.99 216.16,622.48 213.67,655.53 C213.67,655.53 213.67,655.540241 213.67,655.540241 C213.79,655.64 226.92,624.62 247.38,618.32 C263.34,613.41 277.06,625.6 281.35,619.46 C285,614.24 275.39,604.97 278.5,594.97 C281.21,586.23 292.07,582 301.67,579.78 C277.65,573.85 253.62,567.92 229.59,561.99 Z" id="Path" fill="#CC6666" fill-rule="nonzero" opacity="0.46"></path>
                <path d="M231.68,555.24 C228.88,565.73 226.23,576.76 223.8,588.31 C219.33,609.6 216.23,629.75 214.14,648.45 C222.69,612.19 244.67,586.13 269.79,583.03 C275.27,582.35 283.66,582.43 294.03,586.91 C273.25,576.35 252.46,565.8 231.68,555.24 Z" id="Path" fill="#C49494" fill-rule="nonzero" opacity="0.54"></path>
                <path d="M391.15,406.2 C390.82,404.43 390.42,402.68 389.93,400.94 C389.9,400.84 389.86,400.74 389.83,400.63 C389,399.11 388.1,397.63 387.13,396.23 C386.23,395.17 385.31,394.11 384.44,393.02 C383.95,392.53 383.45,392.04 382.99,391.53 C380.3,388.61 378.03,385.34 375.62,382.2 L281.5,403.19 C281.31,403.23 281.15,403.34 281.05,403.49 C240.58,464.11 223.03,585.73 221.97,593.27 C221.94,593.5 222.04,593.72 222.23,593.86 C258.14,619.57 279.63,625.19 282.91,625.94 C283.18,626 283.46,625.9 283.63,625.7 C383.21,507.09 395.05,439.21 391.15,406.2 Z" id="Path" fill="#D85050" fill-rule="nonzero"></path>
                <path d="M281.04,403.49 C281.04,403.49 251.82,436.19 225.43,571.88 C225.43,571.88 292.72,408.18 318.77,394.87 L281.04,403.49 Z" id="Path" fill="#052528" fill-rule="nonzero" opacity="0.25"></path>
                <path d="M371.09,379.39 C366.44,376.01 361.26,373.41 356.5,370.2 C351.73,373.29 274.33,423.55 272.98,425.15 C251.06,446.79 232.83,536 232.83,536 C254.01,514.76 272.87,499.35 285.94,489.36 C319.79,463.47 337.54,456.46 355.94,433.93 C369.73,417.04 376.89,400.01 380.85,387.27 C377.73,384.49 374.49,381.86 371.09,379.39 Z" id="Path" fill="#3D9BAA" fill-rule="nonzero" opacity="0.61"></path>
                <g id="Layer_24" transform="translate(45.000000, 2.000000)" fill="#442121" fill-rule="nonzero">
                    <path d="M120.03,19.78 C119.92,19.4 119.73,18.84 119.43,18.19 C117.8,14.67 115.44,14.15 113.89,11.37 C113.53,10.73 112.25,8.42 112.87,6.26 C113.77,3.14 118.17,1.99 121.39,1.15 C129.68,-1.02 136.81,0.88 140.44,1.84 C143.21,2.58 144.8,3.29 145.96,3.92 C146.43,4.18 150.08,6.17 153.03,9.86 C157.67,15.65 158.27,22.67 158.65,27.75 C159.28,36.35 157.26,38.67 159.58,42.92 C161.77,46.93 164.31,46.18 168.62,50.08 C177.38,58 179.99,72.91 177.66,83.16 C177.19,85.21 176.76,86.06 176.81,87.93 C177.03,96.45 186.55,102.4 189.26,104.3 C205.51,115.69 217.31,150.07 209.89,159.03 C200.53,170.33 148.3,156.02 126.58,121.1 C117.66,106.77 108.3,80 111.86,65.08 C112.64,61.81 115.07,54.78 113.05,46.16 C111.76,40.65 109.58,38.49 109.81,34.23 C110.13,27.92 115.39,23.03 120.03,19.78 Z" id="Path"></path>
                    <path d="M109.48,41.2 C109.71,40.88 110.07,40.41 110.56,39.88 C113.24,37.07 115.64,37.33 117.99,35.2 C118.53,34.71 120.49,32.93 120.6,30.68 C120.75,27.44 116.95,24.94 114.16,23.1 C107,18.39 99.64,17.9 95.89,17.65 C93.03,17.46 91.29,17.62 90,17.85 C89.47,17.94 85.38,18.67 81.39,21.21 C75.51,24.97 75.29,35.22 70.34,36.36 C65.97,37.36 62.49,30.17 59.75,31.31 C56.47,32.68 61.81,42.82 58.47,52.79 C53.86,66.55 37.58,65.53 31.87,80.67 C29.69,86.45 31.52,88.06 30.59,95.5 C27.94,116.76 10.54,123.53 3.68,137.97 C-9.12,164.89 17.88,211.82 33.66,210.58 C47.27,209.51 38.81,173.68 70.82,135.06 C81.02,122.75 101.2,103.07 102.71,86.72 C103.02,83.38 102.97,75.93 107.64,68.41 C110.63,63.6 113.38,62.25 114.53,58.14 C116.25,52.08 112.84,45.76 109.48,41.2 Z" id="Path"></path>
                </g>
                <g id="Layer_23" transform="translate(65.000000, 336.000000)" fill-rule="nonzero">
                    <path d="M325.94,67.81 C329.11,102.29 248.35,145.73 173.68,153.39 C99.93,160.96 6.24,136.29 1.07,97.57 C-4.14,58.51 80.7,4.83 155.46,0.94 C176.86,-0.17 193.83,2.97 206.11,5.25 C242.61,12.01 322.9,34.69 325.94,67.81 Z" id="Path" fill="#D85050"></path>
                    <path d="M303.71,65.12 C303.66,64.97 303.64,64.81 303.61,64.67 L281.94,47.29 C281.94,47.29 190.58,84.93 188.88,86.35 C162.97,104.13 126.16,193.38 126.16,193.38 C151.26,175.86 172.86,163.93 187.68,156.37 C226.07,136.79 244.79,133.4 267.47,113.92 C286.59,97.49 297.67,78.95 303.97,66.12 C303.92,65.78 303.82,65.45 303.71,65.12 Z" id="Path" fill="#3D9BAA" opacity="0.68"></path>
                </g>
                <path d="M241.29,595.57 C234.48,608.5 224.19,624.03 208.36,638.76 C202.43,644.28 193.19,652.88 178.89,661.61 C168.42,668 146.02,680.1 133.02,694.39 C131.4,696.17 128.93,699.08 129.33,702.55 C129.93,707.7 136.72,709.5 145.14,716.4 C151.03,721.22 155.42,725.66 158.3,728.75 C151.38,729.56 146.41,728.52 143.34,727.56 C130.55,723.55 126.9,713.45 107.31,697.85 C104.67,695.75 102.46,694.12 101.13,693.16 C102.93,692.58 105.8,691.38 108.17,688.87 C110.16,686.76 110.97,684.62 111.29,683.73 C117.65,666.21 119.31,657.17 121.6,650.09 C126.08,636.24 135.98,607.53 150.78,570.2 C180.96,578.65 211.12,587.11 241.29,595.57 Z" id="Path" fill="#FFB8B8" fill-rule="nonzero"></path>
                <path d="M152.17,567.8 C152.17,567.8 124.44,634.65 115.24,672.16 C115.24,672.16 115.24,672.170444 115.24,672.170444 C115.37,672.31 137.24,639.29 163.49,636.19 C183.97,633.77 198.52,650.57 204.92,644.37 C210.37,639.1 200.31,626.5 205.98,615.63 C210.94,606.12 225.03,603.46 237.22,602.84 C208.87,591.16 180.52,579.48 152.17,567.8 Z" id="Path" fill="#CC6666" fill-rule="nonzero" opacity="0.46"></path>
                <path d="M156.42,560.51 C151.03,572 145.72,584.15 140.58,596.94 C131.12,620.52 123.56,643.06 117.5,664.14 C134.76,624.18 166.56,598.68 197.94,600.2 C204.78,600.53 215.06,602.32 226.92,609.58 C203.42,593.23 179.92,576.87 156.42,560.51 Z" id="Path" fill="#C49494" fill-rule="nonzero" opacity="0.54"></path>
                <ellipse id="Oval" fill="#0A2B35" fill-rule="nonzero" opacity="0.35" transform="translate(149.376335, 470.894955) rotate(-87.856637) translate(-149.376335, -470.894955) " cx="149.376335" cy="470.894955" rx="28.4899893" ry="100.249962"></ellipse>
                <path d="M136.67,710.27 C135.91,709.97 135.18,709.75 134.42,709.6 C132.26,709.17 130.34,709.38 128.94,709.68 C121.71,706.76 116.27,703.96 113.4,702.13 C112.01,701.24 110.12,699.87 109.79,699.63 C107.79,698.18 106.75,697.3 105.75,696.29 C104.32,694.83 103.21,693.67 103.57,692.62 C103.78,692.01 104.43,691.64 104.93,691.44 C105.06,691.39 103.01,691.99 100.91,693.14 C99.6,693.86 98.58,694.55 97.9,695.05 C96.84,695.69 95.54,696.69 94.47,698.19 C93.68,699.3 92.71,700.66 92.91,702.29 C92.98,702.85 93.22,703.75 93.74,704.63 C93.74,704.63 93.97,705.06 94.3,705.44 C104.82,717.59 133.29,725.75 133.29,725.75 C135.53,726.39 138.84,727.3 142.92,728.27 C150.41,729.75 157.97,730.87 158.54,729.39 C158.68,729.01 158.33,728.58 158.11,728.31 C152.56,721.74 143.27,712.87 136.67,710.27 Z" id="Path" fill="#C60909" fill-rule="nonzero"></path>
                <path d="M367.75,399.41 C366.05,396 363.56,393.14 360.47,390.98 L246.53,395.21 C246.31,395.22 246.11,395.31 245.96,395.46 C187.5,455.63 142.25,589.61 139.48,597.92 C139.4,598.17 139.46,598.45 139.65,598.64 C174.93,635.23 198.08,646.08 201.63,647.61 C201.92,647.73 202.26,647.68 202.5,647.48 C366.85,511.84 374.15,432 369.25,403.16 C368.84,401.88 368.35,400.62 367.75,399.41 Z" id="Path" fill="#EF6F6F" fill-rule="nonzero"></path>
                <path d="M245.95,395.45 C245.95,395.45 206.05,426.36 147.85,574.43 C147.85,574.43 258.18,403.2 290.44,393.57 L245.95,395.45 Z" id="Path" fill="#CE5555" fill-rule="nonzero" opacity="0.59"></path>
                <rect id="Rectangle" fill="#39B2A5" fill-rule="nonzero" x="504.37" y="360.44" width="9.23" height="343.97"></rect>
                <path d="M364.01,393.55 C363.69,393.79 363.19,393.81 362.94,393.36 C362.04,391.76 360.53,390.59 359.73,388.92 C359.62,388.69 359.64,388.47 359.73,388.29 C359.67,388.23 359.62,388.17 359.57,388.11 C359.55,388.08 359.52,388.06 359.5,388.04 L338.62,373.4 C338.62,373.4 234.25,416.7 232.33,418.28 C202.99,438.21 163.73,535.36 163.73,535.36 C192.14,515.74 216.7,502.24 233.58,493.66 C277.29,471.42 298.85,467.2 324.37,445.54 C345.39,427.7 357.45,407.93 364.35,393.97 C364.23,393.82 364.12,393.68 364.01,393.55 Z" id="Path" fill="#D85D5D" fill-rule="nonzero" opacity="0.59"></path>
                <ellipse id="Oval" fill="#FFFFFF" fill-rule="nonzero" opacity="0.601908" cx="508.72" cy="352.62" rx="169.52" ry="50.56"></ellipse>
                <ellipse id="Oval" fill="#0A2B35" fill-rule="nonzero" opacity="0.35" cx="508.72" cy="349.5" rx="36.68" ry="10.94"></ellipse>
                <path d="M477.66,402.34 C477.66,402.37 477.27,402.34 476.18,402.26 C472.15,401.98 471.91,402.05 469.44,401.82 C468.25,401.71 468.04,401.67 466.89,401.58 C465.31,401.46 464.15,401.41 463.89,401.4 C461.35,401.29 453.17,400.47 449.41,400.01 C424.57,396.92 409.6,393.23 409.6,393.23 C387.13,387.55 360.7,380.87 350.52,361.6 C347.63,356.12 347.54,352.46 347.71,350.43 C348.73,338.3 363.42,330.38 370.12,326.63 C375.97,323.36 380.86,321.85 387.86,319.74 C396.38,317.18 406.75,314.75 418.8,313.35 C486.06,309.24 485.22,302.28 536.18,303.89 C568.58,304.91 589.95,308.39 589.890126,309.77 C589.72,313.4 441.29,325.9 419.57,348.39 C415.1,353.02 411.77,357.92 411.9,363.48 C412.39,384.5 460.7,399.64 470.48,401.14 C471.14,401.23 477.67,402.2 477.66,402.34 Z" id="Path" fill="#9DE5DE" fill-rule="nonzero" opacity="0.761439732"></path>
                <g id="Layer_1" transform="translate(3.000000, 0.000000)">
                    <path d="M356.17,278.28 C355.38,281.58 343.12,331.51 328.3,338.73 C324.55,340.56 320.92,340.56 320.92,340.56 C311.38,340.56 304.71,331.52 303.02,329.08 C311.97,312.96 320.93,296.85 329.88,280.74 L349.22,278.09 L354.72,277.99 L356.17,278.28 Z" id="Path" fill="#7F1C1C" fill-rule="nonzero"></path>
                    <path d="M343.46,272.72 C345.4,272.79 347.36,272.88 349.34,273.01 C377.75,274.85 403.35,282.83 425.81,293.71 C425.81,293.71 444.05,289.58 461.27,292.51 C461.27,292.51 474.74,294.66 479.94,296.81 C480.18,296.93 487.19,299.39 493.24,303.43 C493.46,303.5 493.56,303.71 493.51,303.85 C493.47,303.95 493.37,304.01 493.24,304.03 C491.78,303.82 490.32,303.6 488.85,303.38 C486.76,303.07 484.67,302.76 482.59,302.44 C483.83,303.01 485.1,303.64 486.39,304.35 C489.93,306.27 492.97,308.34 495.54,310.35 C495.7,310.53 495.71,310.79 495.58,310.95 C495.44,311.11 495.22,311.09 495.2,311.09 C494.6,310.92 494,310.74 493.4,310.57 C494.21,311.14 495.03,311.71 495.84,312.27 C496.1,312.5 496.24,312.76 496.16,312.91 C496.1,313.03 495.92,313.06 495.65,313.1 C495.51,313.12 495.39,313.13 495.3,313.13 C495.28,313.13 495.25,313.13 495.2,313.13 C491.54,313.11 489.24,312.8 486.5,312.59 C484.79,312.45 483.61,312.41 481.64,312.33 C476.19,312.12 469.96,312.26 469.94,312.59 C469.93,312.81 473.74,313.01 478.57,313.68 C484.48,314.49 489.3,315.63 492.7,316.56 C492.78,316.59 492.89,316.64 492.98,316.75 C493.07,316.86 493.09,316.99 493.09,317.01 C493.09,317.57 481.65,317.91 481.65,317.91 C478.41,318.01 475.17,318.29 471.93,318.45 C466.85,318.71 458.69,319.72 445.49,323.22 C441.55,322.62 436.02,322.05 429.42,322.28 C426.49,322.38 423.74,322.63 421.2,322.96 C407.32,325.62 334.05,339.29 304.59,330.06 C300.98,328.93 297.8,327.28 296.15,324.18 C287.75,308.39 328.88,272.54 328.88,272.54 C333.75,272.59 338.6,272.65 343.46,272.72 Z" id="Path" fill="#FFB8B8" fill-rule="nonzero"></path>
                    <path d="M420.78,320.31 C427.02,324.14 432.49,325.62 436.18,326.26 C447.65,328.27 454.42,324.39 465.69,323.78 C466.36,323.74 468.17,323.66 468.23,323.2 C468.31,322.62 465.52,321.58 463.12,321.11 C456.38,319.8 451.8,322.78 450.59,321.11 C450.22,320.6 450.1,319.57 451.49,317.19 C447.02,316.99 441.84,317.04 436.11,317.62 C430.3,318.2 425.16,319.2 420.78,320.31 Z" id="Path" fill="#FFB8B8" fill-rule="nonzero"></path>
                    <path d="M136.48,88.1 L163.12,90.52 C165.18,90.71 166.74,92.47 166.67,94.54 L166.55,97.97 C166.54,98.17 166.55,98.36 166.56,98.56 C168.09,115.16 199.38,126.79 213.7,131.27 C216.4,132.11 216.78,135.82 214.27,137.13 C176.07,156.98 113.62,149.8 87.27,145.77 C83.25,145.15 86.06,138.46 86.06,138.46 C86.31,136.97 86.88,134.77 88.31,132.54 C89.54,130.63 91.52,128.51 96.74,125.85 C101.5,123.42 105.02,122.55 107.49,121.75 C111.36,120.5 121.88,117.1 126.94,109.05 C129.68,104.69 130.97,98.74 133.2,88.43 C133.62,86.47 134.35,82.9 135.12,82.9298121 C135.8,82.96 136.22,85.7 136.48,88.1 Z" id="Path" fill="#FFB8B8" fill-rule="nonzero"></path>
                    <path d="M129.32,79.95 C130.75,76.88 177.06,95.21 177.06,95.21 L175.9,112.56 C164.93,111.57 156.6,108.93 151.25,106.82 C143.65,103.81 140.15,101.12 137.59,98.26 C135.05,95.42 133.57,92.57 132.7,90.57 C132.26,89.82 131.91,89.19 131.68,88.76 C131.78,88.19 131.87,87.37 131.81,86.39 C131.54,82.44 128.97,80.71 129.32,79.95 Z" id="Path" fill="#CC6666" fill-rule="nonzero"></path>
                    <path d="M122.62,64.12 C122.84,67.33 124.76,89.97 143.81,99.72 C155.04,105.47 167.77,104.47 176.8,100.57 C179.36,99.46 184.01,97.39 188.05,92.64 C194.58,84.96 194.88,75.73 194.95,73.37 C195.02,71.12 194.83,69.41 194.6,67.31 C194.11,62.88 193.38,60.85 191.54,51.63 C191.15,49.66 190.95,48.68 190.86,48.13 C189.58,40.56 190.54,38.89 188.98,35.09 C187.98,32.64 186.6,30.9 185.66,29.72 C183.81,27.39 182.02,25.96 180.97,25.12 C178.28,22.97 175.92,21.8 175.17,21.45 C174.32,21.06 173.06,20.52 171.5,20 C160.78,16.42 150.65,18.67 146.52,20.09 C130.78,25.51 121.39,46.22 122.62,64.12 Z" id="Path" fill="#FFB8B8" fill-rule="nonzero"></path>
                    <ellipse id="Oval" fill="#FFB8B8" fill-rule="nonzero" transform="translate(122.017386, 66.513056) rotate(-22.246131) translate(-122.017386, -66.513056) " cx="122.017386" cy="66.513056" rx="9.68035486" ry="13.0004766"></ellipse>
                    <path d="M343.54,272.57 C333.48,285.52 332.9,302.94 341.78,315.36 C352.88,330.9 372.77,330.24 374.01,330.18 C366.13,331.2 357.67,332.02 348.68,332.5 C336.96,333.13 326.04,333.11 316.04,332.68 C317.02,313.02 318.01,293.36 318.99,273.7 C322.79,273.19 326.59,272.67 330.39,272.16 C331.99,271.63 334.69,270.96 338.04,271.25 C340.36,271.45 342.23,272.04 343.54,272.57 Z" id="Path" fill="#D89898" fill-rule="nonzero" opacity="0.54"></path>
                    <path d="M343.49,332.84 C349,332.45 354.51,332.07 360.02,331.68 C358.06,331.61 355.67,331.36 353.01,330.7 C351.18,330.24 349.57,329.68 348.2,329.11 C345.35,328.17 342.55,326.79 340.08,324.74 C331.99,318.03 330.82,307.06 330.22,301.43 C328.81,288.1 333.51,277.59 336.17,272.65 C334.83,272.23 332.93,271.8 330.66,271.82 C327.36,271.85 324.8,272.8 323.31,273.5 C319.67,274.4 316.02,275.3 312.38,276.2 C312.61,294.86 312.83,313.51 313.06,332.17 C320.42,332.81 326.83,333.04 332.03,333.1 C335.69,333.13 339.1,333.04 343.49,332.84 Z" id="Path" fill="#CC6666" fill-rule="nonzero" opacity="0.46"></path>
                    <path d="M151.88,9.76 C163.69,0.32 178.25,-2.59 189.06,2.94 C197.7,7.36 201.6,15.98 201.77,16.35 C206.76,27.77 199.57,34.76 205.3,43.64 C208.87,49.18 212.42,47.64 218.24,55.64 C220.41,58.62 223.36,62.69 224.36,68.58 C225.1,72.96 225.05,80.09 224.12,85.76 C223.95,86.83 223.52,89.18 224.15,92.1 C224.61,94.27 225.5,96.03 226.47,97.53 C229.57,102.29 233.3,103.93 237.53,107.41 C242.35,111.38 245.02,115.46 247.91,119.88 C251.87,125.94 253.94,131.22 254.71,133.29 C256.25,137.45 259.01,145.15 258.71,155.41 C258.59,159.54 257.93,165.82 255.18,173.06" id="Path" stroke="#442121"></path>
                    <path d="M205.33,142.11 C191.52,153.6 215.96,246.45 215.96,246.45 C247.67,339.54 320.92,340.56 320.92,340.56 C330.13,284.81 346.46,272.69 346.46,272.69 C343.56,271.4 339.15,269.48 333.71,267.32 C323.22,263.15 323.16,263.73 319.44,261.95 C307.5,256.21 300.49,246.53 298.55,243.67 C295.02,238.47 290.75,230.09 290.75,230.09 L290.75,230.09 C268.76,172.8 259.04,161.04 259.04,161.04 L205.33,142.11 Z" id="Path" fill="#EF6F6F" fill-rule="nonzero"></path>
                    <g id="Group" opacity="0.59" transform="translate(230.000000, 169.000000)" fill="#CE5555" fill-rule="nonzero">
                        <path d="M35.87,85.93 C36.65,92.47 38.92,102.87 46.61,111.71 C64.17,131.87 104.57614,122.395481 103.087215,125.544398 C99.130527,133.912369 95.0747888,149.250903 90.92,171.56 C78.4390264,169.45739 68.4901047,166.933982 61.0732349,163.989777 C53.656365,161.045572 43.6452867,155.645646 31.04,147.79 C8.15333333,48.1966667 -1.98333333,-0.88 0.63,0.56 C7.36,4.27 11.14,9.97 15.61,18.76 C23.35,33.96 27.2,46.62 27.68,48.25 C30.48,57.58 33.69,70.33 35.87,85.93 Z" id="Path"></path>
                    </g>
                    <path d="M123.74,112.97 C123.74,112.97 147.74,139.29 180.76,116.67 C184.13,118.69 187.78,120.71 191.71,122.66 C200.79,127.16 209.41,130.31 217.1,132.55 C223.6,134.32 231.79,137.43 240.12,143.12 C262.66,158.52 270.12,181.8 272.34,190.09 L237.82,175.77 C237.82,175.77 261.26,231.27 262.63,352.66 L259.22,374.4 C185.88,394.12 112.53,413.85 39.19,433.57 C41.56,402.56 44.09,371.35 46.78,339.96 C52.27,275.97 58.32,212.88 64.85,150.69 C66.45,147.3 68.85,143.18 72.48,139.08 C80.74,129.72 90.58,125.85 95.75,124.25 C99.27,123.73 103.46,122.81 108.03,121.18 C114.73,118.77 119.98,115.64 123.74,112.97 Z" id="Path" fill="#34B8D6" fill-rule="nonzero"></path>
                    <path d="M123.76,112.95 C123.76,112.95 147.76,139.27 180.78,116.65 C184.15,118.67 187.8,120.69 191.73,122.64 C200.81,127.14 209.43,130.29 217.12,132.53 C223.62,134.3 231.81,137.41 240.14,143.1 C262.68,158.5 270.14,181.78 272.36,190.07 L237.84,175.75 C237.84,175.75 261.28,231.25 262.65,352.64 L259.24,374.38 C185.89,394.11 112.54,413.84 39.2,433.58 C37.02,420.97 34.63,400.75 37.07,376.21 C39.01,356.67 43.2,342.59 44.4,338.34 C51.07,314.79 59.01,265.04 64.87,150.67 C66.47,147.28 68.87,143.16 72.5,139.06 C80.76,129.7 90.6,125.83 95.77,124.23 C99.29,123.71 103.48,122.79 108.05,121.16 C114.75,118.75 120,115.62 123.76,112.95 Z" id="Path" fill="#EF6F6F" fill-rule="nonzero"></path>
                    <g id="Group" opacity="0.59" transform="translate(35.000000, 177.000000)" fill="#CE5555" fill-rule="nonzero">
                        <path d="M46.55,1.58 C51.45,5.72 50.79,12.05 52.86,18.46 C53.61,20.78 55,23.98 57.8,27.5 C58.43,28.61 59.33,30.25 60.36,32.27 C64.23,39.91 66.37,46.2 66.85,47.71 C70.63,59.48 65.03,64.95 66.5,81.72 C67.21,89.82 69.19,96.14 70.08,98.6 C74.89,111.79 88.86,124.27 140.49,139.86 C164.98,147.25 174.53,148.28 195.39,153.5 C215.56,158.55 244.21,167 278.25,181.63 C193.1,212.63 126.21,232.8 92.33,240.83 C63.65,247.63 34.29,251.69 31.75,251.83 C12.48,252.92 4.10280732,256.235556 4.03874193,254.77 C3.85679601,250.607816 0.277466361,233.055405 1.04201563,213.98 C1.52527655,201.922703 4.59150382,174.55416 6.56613434,174.55416 C87.9121594,174.55416 28.55,-19.04 46.55,1.58 Z" id="Path"></path>
                    </g>
                    <path d="M366.43,403.58 C371.43,440.54 290.31,493.04 210.86,500.32 C120.49,508.6 43.63,478.71 39.18,433.56 C35.07,391.78 121.44,340.65 194.75,336.82 C216.3,335.69 233.4,338.83 245.76,341.09 C251.85,342.21 360.94,363.01 366.43,403.58 Z" id="Path" fill="#EF6F6F" fill-rule="nonzero"></path>
                    <path d="M159.69,318.79 C159.69,318.79 160.81,389.47 139.77,386.52 C134.25,385.7 128.74,384.88 123.22,384.06 C127.08,365.22 130.95,346.37 134.82,327.53 L152.92,320.29 L158.23,318.86 L159.69,318.79 Z" id="Path" fill="#03353D" fill-rule="nonzero"></path>
                    <path d="M124.76,496.31 C117.65,495.06 108.05,492.89 97.11,488.88 C88.13,485.59 79.33,482.36 69.83,475.75 C61.45,469.92 42.59,456.79 39.89,435.07 C38.76,426.02 40.8,418.37 42.55,413.61 C53.08,396.39 64.93,384.26 75.89,375.58 C163.25,306.4 303.17,370.2 314.03,375.32 C280.68,389.71 253.06,394.27 234.59,395.87 C182.63,400.37 143.67,386.45 111.53,411.16 C102.86,417.82 99.6,423.57 97.99,427.45 C85.76,456.97 121.47,493.07 124.76,496.31 Z" id="Path" fill="#D85D5D" fill-rule="nonzero" opacity="0.59"></path>
                    <path d="M100.74,489.75 C98.96,489.3 97.55,488.86 96.68,488.58 C92.64,487.27 90.49,486.14 82.22,482.45 C79.47,481.22 79.68,481.34 78.96,481 C77.27,480.22 70.45,476.99 62.67,470.66 C56.68,465.78 49.87,460.24 44.82,450.61 C41.6,444.46 40.25,438.84 39.62,435.17 C39.62,435.17 39.62,435.17 39.62,435.17 C39.62,435.15 39.46,434.04 39.46955,432.07 C39.46955,430.73 39.5,427.98 40.26,423.8 C40.67,421.55 41.54,416.73 43.84,411.15 C44.56,409.41 47.57,402.32 54.5,394.38 C72.42,373.83 98.79,367.87 105.57,366.43 C111.66,365.13 116.32,364.7 118.94,364.46 C145.28,362.08 242.98,353.49 276.64,362.64 C283.72,364.57 289.52,367.7 298.07,367.6 C300.23,367.57 306.7,367.29 314.23,370.12 C315.07,370.43 315.75,370.72 316.2,370.92 C308.39,371.66 306.75,372.29 306.74,372.74 C306.74,373.09 307.73,373.29 309.8,374.17 C311.7,374.98 313.18,375.8 314.14,376.36 C295.73,381.86 268.04,388.77 233.36,392.18 C225.31,392.97 218,393.46 211.5,393.76 C145.99,396.83 103.94,383.52 77.65,409.85 C73.5,414.01 62.83,426.19 63.04,442.48 C63.43,471.9 99.09,488.99 100.74,489.75 Z" id="Path" fill="#CE5555" fill-rule="nonzero" opacity="0.59"></path>
                    <path d="M128.25,311.72 C128.26,311.73 128.27,311.73 128.29,311.73 C141.77,314.71 155.42,317.86 169.22,321.18 C195.49,327.51 221,334.17 245.72,341.08 C245.74,341.08 245.76,341.09 245.77,341.08 C247.59,340.74 249.5,340.43 251.5,340.18 C256.39,339.57 260.93,339.39 265.01,339.48 C266.08,339.5 266.85,339.54 267.48,339.58 C269.63,339.72 271.2,339.83 271.45,339.85 C273.05,339.98 276.52,339.86 284.74,338.69 C284.75,338.69 284.75,338.69 284.76,338.69 C286.4,338.23 287.32,338.17 287.5,338.51 C287.56,338.63 287.54,338.79 287.42,339.01 C286.55,339.76 285.54,340.54 284.36,341.27 C281.1,343.3 277.91,344.19 275.52,344.6 C275.39,344.62 275.38,344.79 275.51,344.83 C279.18,346.04 303.39,354.22 310.59,361.3 C310.75,361.49 310.77,361.76 310.63,361.96 C310.49,362.17 310.21,362.25 309.97,362.15 C308.73,361.82 307.48,361.5 306.24,361.17 C307.33,361.7 308.43,362.26 309.53,362.83 C312.51,364.38 315.33,365.96 318,367.56 C318.12,367.72 318.16,367.93 318.09,368.09 C317.98,368.32 317.67,368.45 317.37,368.32 C317.12,368.28 316.87,368.24 316.62,368.2 L313.53,367.69 C314.59,368.16 315.65,368.63 316.71,369.11 C316.79,369.23 316.8,369.32 316.79,369.38 C316.75,369.64 316.32,369.86 315.7,369.87 C299.69,368.72 296.97,368.73 296.84,368.71 C296.69,368.69 296.63,368.89 296.77,368.94 C299.43,369.86 305.1,371.87 306.74,372.94 C306.92,373.07 307.03,373.27 307,373.45 C306.95,373.71 306.61,373.94 306.23,373.83 C295.13,375.05 285.64,375.39 278.23,375.41 C255.41,375.46 247.97,372.39 247.97,372.39 C247.97,372.39 247.96,372.39 247.95,372.39 C247.95,372.39 247.94,372.39 247.94,372.39 C247.16,372.69 194.36,392.62 86.16,371.43 C86.08,371.41 86.04,371.34 86.08,371.27 C87.76,368.24 117.89,313.97 121.75,307.85 C122.09,307.83 122.14,307.82 122.47,307.8 C123.09,308.48 124.78,309.68 128.25,311.72 Z" id="Path" fill="#FFB8B8" fill-rule="nonzero"></path>
                    <path d="M305.72,372.55 C302,371.16 298.27,369.79 294.48,368.61 C292.59,368 290.7,367.39 288.79,366.86 C286.87,366.35 284.96,365.81 283.05,365.26 C284.98,365.72 286.91,366.2 288.83,366.7 C290.75,367.21 292.65,367.78 294.55,368.37 C298.32,369.64 302.07,370.97 305.72,372.55 Z" id="Path" fill="#FFF3F3" fill-rule="nonzero"></path>
                    <path d="M316.34,369.09 C310.9,367.1 305.47,365.12 299.96,363.35 C297.22,362.43 294.47,361.53 291.7,360.7 C288.92,359.89 286.15,359.05 283.39,358.19 C286.18,358.95 288.97,359.73 291.75,360.54 C294.53,361.35 297.29,362.22 300.04,363.12 C305.52,364.97 310.98,366.9 316.34,369.09 Z" id="Path" fill="#FFF3F3" fill-rule="nonzero"></path>
                    <path d="M317.9,367.71 C312.58,364.75 307.18,361.93 301.62,359.45 C298.85,358.19 296.07,356.95 293.23,355.86 C290.38,354.8 287.53,353.72 284.69,352.61 C287.56,353.62 290.43,354.65 293.29,355.7 C296.14,356.77 298.94,357.98 301.72,359.22 C304.49,360.5 307.22,361.83 309.92,363.25 C312.63,364.66 315.29,366.15 317.9,367.71 Z" id="Path" fill="#FFF3F3" fill-rule="nonzero"></path>
                    <path d="M151.78,5.33 C149.29,4.19 127.64,-5.29 109.13,6.26 C106.59,7.84 97.97,13.65 93.35,24.46 C87.73,37.58 94.02,44.01 88.01,54.31 C82.34,64.04 75.23,60.9 68.47,70.72 C61.03,81.55 67.43,88.63 62.08,103.76 C56.42,119.78 46.38,119.93 39,134.22 C34.63,142.68 30.97,156.53 36.76,179.07" id="Path" stroke="#442121"></path>
                    <path d="M163.46,319.83 C152.37,332.15 150.31,349.78 158.06,363.12 C167.75,379.8 187.53,380.76 188.76,380.79 C180.86,381.19 172.4,381.32 163.44,381.08 C151.76,380.77 140.93,379.85 131.05,378.6 C133.71,358.73 136.36,338.85 139.02,318.98 C142.83,318.77 146.64,318.56 150.46,318.35 C152.09,317.94 154.83,317.48 158.13,318.05 C160.4,318.44 162.2,319.18 163.46,319.83 Z" id="Path" fill="#D89898" fill-rule="nonzero" opacity="0.54"></path>
                    <path d="M158.2,380.79 C163.72,380.91 169.25,381.03 174.77,381.16 C172.83,380.91 170.47,380.43 167.88,379.52 C166.1,378.89 164.55,378.17 163.24,377.47 C160.5,376.26 157.84,374.6 155.59,372.31 C148.19,364.79 148.09,353.62 148.05,347.89 C147.95,334.32 153.65,324.15 156.78,319.41 C155.48,318.86 153.64,318.25 151.38,318.06 C148.09,317.78 145.45,318.51 143.9,319.08 C140.19,319.65 136.47,320.22 132.76,320.79 C131.17,339.63 129.57,358.47 127.98,377.3 C135.24,378.63 141.61,379.45 146.78,379.99 C150.41,380.36 153.81,380.59 158.2,380.79 Z" id="Path" fill="#CC6666" fill-rule="nonzero" opacity="0.46"></path>
                    <path d="M96.31,124.14 C87.92,125.31 80.7,127.43 74.61,129.87 C30.52,147.52 13.65,194.52 9.39,207.76 C9.39,207.76 -7.82,251.44 4.59,300.37 C6.32,307.2 24.6,358.24 70.75,373.28 C76.65,375.2 108.64,384.89 122.84,369.54 C130.86,360.87 121.35,348.38 130.4,334.35 C138.43,321.9 151.02,322.08 150.890999,315.99 C150.82,312.64 145.98,311.38 137,307.15 C123.55,300.8 111.86,295.29 104.55,286.38 C103.61,285.24 93.58,273.04 94.99,257.89 C95.9,248.09 99.97,238.93 99.98,225.52 C99.98,223.3 99.69,221.1 99.13,218.95 C98.26,215.62 96.97,209.26 97.15,201.36 C97.12,191.92 97.07,182.44 96.99,172.91 C96.85,156.53 96.62,140.27 96.31,124.14 Z" id="Path" fill="#EF6F6F" fill-rule="nonzero"></path>
                    <path d="M124.24,302.01 C124.24,302.01 154.01,313.68 163.67,319.77 C159.81,324.02 155.73,329.33 152.09,335.81 C140.76,355.98 140.18,375.9 140.75,386.61 C137.54,386.36 134.27,386.07 130.95,385.74 C128.34,385.48 125.76,385.21 123.22,384.91 C123.22,384.91 104.64,382.68 82.5,377.12 C81.87,376.96 78.3,376.06 73.74,374.56 C70.21,373.4 67.53,372.36 64.76,371.06 C64,370.7 63.37,370.39 62.92,370.16 C83.37,347.45 103.81,324.73 124.24,302.01 Z" id="Path" fill="#EF6F6F" fill-rule="nonzero"></path>
                    <g id="Group" opacity="0.1" transform="translate(138.000000, 65.000000)" fill-rule="nonzero">
                        <circle id="Oval" fill="url(#linearGradient-1)" cx="8.39" cy="8.28" r="7.9"></circle>
                        <path d="M16.2900893,8.28 C16.3,10.35 15.47,12.41 14.03,13.91 C12.6,15.43 10.54,16.37 8.4,16.42 C6.27,16.49 4.09,15.68 2.51,14.16 C0.93,12.66 5.68434189e-14,10.47 5.68434189e-14,8.27 C5.68434189e-14,6.07 0.92,3.89 2.51,2.38 C4.08,0.86 6.27,0.05 8.4,0.12 C10.54,0.17 12.6,1.12 14.03,2.63 C15.47,4.15 16.3,6.21 16.2900893,8.28 Z M16.29,8.28 C16.29,6.21 15.42,4.16 13.93,2.75 C12.45,1.33 10.4,0.57 8.4,0.64 C6.39,0.69 4.47,1.58 3.12,3.01 C1.76,4.42 0.99,6.35 0.999903796,8.29 C0.99,10.23 1.76,12.16 3.12,13.57 C4.46,15 6.39,15.88 8.4,15.94 C10.4,16.01 12.45,15.25 13.93,13.83 C15.42,12.4 16.29,10.35 16.29,8.28 Z" id="Shape" fill="#DF8BFF"></path>
                    </g>
                    <g id="Group" opacity="0.1" transform="translate(179.000000, 64.000000)" fill-rule="nonzero">
                        <path d="M7.69,0.7 C4.51,0.7 1.78,2.58 0.53,5.29 C0.86,5.84 1.17,6.4 1.46,6.98 C1.67,7.35 1.9,7.72 2.1,8.09 C2.46,8.75 2.89,9.59 3.02,10.41 C3.08,10.53 3.11,10.66 3.13,10.8 C3.13,10.8 3.13,10.8 3.13,10.81 C3.16,10.86 3.18,10.91 3.2,10.97 C3.21,11 3.2,11.02 3.21,11.05 C3.21,11.07 3.21,11.08 3.22,11.1 C3.24,11.2 3.24,11.3 3.24,11.41 C3.24,11.44 3.23,11.46 3.23,11.49 C3.23,11.51 3.23,11.53 3.22,11.56 C3.22,11.57 3.22,11.58 3.22,11.59 C3.21,11.62 3.22,11.65 3.21,11.67 C3.21,11.68 3.2,11.69 3.2,11.7 C3.2,11.7 3.2,11.71 3.2,11.71 C3.2,11.71 3.2,11.71 3.2,11.71 C3.2,11.71 3.2,11.71 3.2,11.71 C3.2,11.71 3.07,12.02 3.07,12.02 C3.07,12.02 3.07,12.02 3.07,12.02 C3.04,12.07 3.01,12.11 2.97,12.15 C2.94,12.2 2.91,12.24 2.87,12.28 C2.78,12.35 2.69,12.42 2.61,12.48 C2.61,12.48 2.45,12.55 2.36,12.58 C2.27,12.65 2.19,12.73 2.09,12.79 C1.96,12.87 1.79,12.93 1.65,12.99 C1.6,13.01 1.55,13.02 1.49,13.03 C1.42,13.04 1.34,13.06 1.26,13.07 C2.68,15.13 5.01,16.49 7.69,16.49 C12.05,16.49 15.59,12.96 15.59,8.59 C15.58,4.23 12.05,0.7 7.69,0.7 Z" id="Path" fill="url(#linearGradient-2)"></path>
                        <path d="M7.69,0.7 C6.19,0.71 4.7,1.14 3.46,1.98 C2.22,2.8 1.23,3.99 0.66,5.35 L0.65,5.22 C1.14,6.04 1.62,6.88 2.12,7.68 C2.62,8.49 3.12,9.35 3.32,10.37 L3.29,10.29 C3.34,10.45 3.39,10.61 3.44,10.77 L3.43,10.71 L3.43,10.72 L3.41,10.68 C3.51,10.85 3.54,11.04 3.55,11.22 C3.58,11.39 3.55,11.6 3.53,11.76 L3.54,11.73 C3.54,11.75 3.53,11.77 3.53,11.78 L3.54,11.72 C3.53,11.85 3.53,11.78 3.53,11.81 L3.52,11.84 L3.5,11.89 L3.46,12 L3.37,12.22 L3.32,12.28 L3.41,12.1 L3.35,12.24 L3.23,12.41 L3.27,12.36 C3.22,12.43 3.17,12.5 3.12,12.56 L3.11,12.57 L3.08,12.6 L2.82,12.81 L2.68,12.88 L2.49,12.97 L2.58,12.91 C2.41,13.06 2.22,13.2 2,13.29 C1.89,13.34 1.81,13.39 1.64,13.44 C1.47,13.49 1.42,13.49 1.3,13.51 L1.59,12.86 C3.08,14.95 5.62,16.2 8.16,16 C10.7,15.88 13.1,14.36 14.37,12.11 C15.65,9.87 15.67,6.9 14.33,4.6 C13.69,3.43 12.69,2.47 11.54,1.78 C10.38,1.06 9.03,0.72 7.69,0.7 Z M7.69,0.7 C10.4,0.68 13.06,2.12 14.53,4.44 C16.05,6.73 16.25,9.86 15,12.4 C13.79,14.95 11.11,16.8 8.23,16.95 C5.35,17.21 2.45,15.68 0.91,13.3 L0.55,12.75 L1.19,12.65 C1.27,12.64 1.43,12.62 1.45,12.61 C1.48,12.62 1.58,12.56 1.65,12.54 C1.81,12.49 1.96,12.4 2.09,12.29 L2.14,12.25 L2.18,12.23 L2.48,12.12 L2.34,12.19 L2.61,11.99 L2.57,12.02 C2.58,12 2.6,11.98 2.62,11.96 L2.66,11.91 L2.74,11.82 L2.68,11.96 L2.77,11.78 L2.72,11.84 L2.77,11.74 L2.8,11.69 L2.81,11.66 L2.82,11.65 C2.82,11.67 2.83,11.59 2.82,11.7 L2.83,11.64 C2.83,11.62 2.84,11.62 2.84,11.61 L2.84,11.6 L2.84,11.57 C2.86,11.45 2.88,11.38 2.87,11.26 C2.87,11.14 2.87,11.05 2.83,10.96 L2.81,10.92 L2.81,10.91 L2.8,10.85 C2.77,10.75 2.75,10.65 2.73,10.55 L2.7,10.46 C2.58,9.58 2.16,8.73 1.71,7.89 C1.25,7.05 0.82,6.2 0.39,5.36 L0.35,5.29 L0.38,5.23 C1.06,3.87 2.12,2.71 3.4,1.92 C4.7,1.12 6.19,0.69 7.69,0.7 Z" id="Shape" fill="#DF8BFF"></path>
                    </g>
                    <path d="M120.35,57.05 L120.35,57.05 L120.35,57.05 L120.35,57.05 L120.35,57.05 C119.86,57.01 119.36,57.12 119.12,57.18 C117.22,57.64 116.29,59.52 116.08,59.99 C115.72,60.91 114.49,64.42 116.01,68.34 C118.21,74.05 124.24,75.43 124.71,75.53 C123.25,69.37 121.8,63.21 120.35,57.05 Z" id="Path" fill="#CC6666" fill-rule="nonzero"></path>
                </g>
                <g id="Layer_22" transform="translate(103.000000, 1.000000)" fill="#442121" fill-rule="nonzero">
                    <path d="M62.32,21.1 C62.44,20.53 62.59,19.68 62.61,18.65 C62.72,12.98 58.93,8.87 57.85,7.7 C54.62,4.2 50.93,2.89 48.22,1.96 C35.77,-2.3 24.37,2.43 21.62,3.67 C17.51,5.53 14.72,7.7 13.61,8.61 C8.47,12.83 5.8,17.48 4.74,19.52 C2.89,23.1 -1.93,32.38 1.84,40.49 C2.95,42.88 4.44,44.41 5.93,45.95 C9.72,49.85 14.79,52.68 17.51,52.62 C17.82,52.61 18.95,52.51 20.41,52.84 C21.1,53 21.76,53.31 22.46,53.42 C24.93,53.81 27.07,51.67 28.35,49.52 C31.85,43.61 32.46,36.33 35.9,30.38 C39.6,23.98 47.12,19.12 54.54,19.11 C56.81,19.11 58.69,19.57 59.95,19.98 C60.45,20.16 60.99,20.39 61.55,20.67 C61.82,20.82 62.08,20.96 62.32,21.1 Z" id="Path"></path>
                    <path d="M71.16,16.33 L61.29,14.65 C61.29,14.65 60.38,16.41 60.42,16.49 C60.45,16.57 60.75,18.12 60.82,18.15 C60.89,18.18 61.73,20.05 61.73,20.05 L62.11,20.45 C62.14,20.48 62.38,20.8 62.29,20.95 C62.28,20.96 62.33,21.03 62.39,21.09 C63.04,19.87 63.9,19.26 64.34,19 C66.23,17.86 68.36,18.26 68.85,18.35 C68.97,18.37 69.68,18.56 71.1,18.92 C71.82,19.11 72.41,19.26 72.8,19.37 C72.91,19.18 73.2,18.65 73.07,18 C72.91,17.19 72.16,16.51 71.16,16.33 Z" id="Path"></path>
                </g>
                <path d="M495.38,316.79 C490.06,315.65 484.7,314.66 479.29,314.05 C476.59,313.72 473.88,313.42 471.17,313.27 C468.45,313.16 465.73,313.02 463.01,312.86 C465.73,312.92 468.45,313 471.18,313.1 C473.9,313.22 476.61,313.49 479.32,313.8 C482.02,314.15 484.72,314.56 487.4,315.06 C490.08,315.53 492.74,316.12 495.38,316.79 Z" id="Path" fill="#FFF3F3" fill-rule="nonzero"></path>
                <path d="M498.68,312.27 C493.28,309.82 487.74,307.67 482.03,306.07 C479.19,305.24 476.31,304.52 473.4,303.93 C470.49,303.35 467.57,302.86 464.62,302.49 C470.53,303.04 476.37,304.23 482.09,305.84 C484.94,306.68 487.75,307.63 490.52,308.71 C493.3,309.76 496.02,310.96 498.68,312.27 Z" id="Path" fill="#FFF3F3" fill-rule="nonzero"></path>
                <path d="M498.13,310.21 C493.13,307.13 487.96,304.34 482.54,302.1 C479.85,300.92 477.08,299.96 474.31,298.99 C471.52,298.09 468.7,297.28 465.85,296.59 C468.72,297.19 471.57,297.94 474.37,298.83 C477.15,299.77 479.94,300.71 482.64,301.87 C488.03,304.2 493.24,306.95 498.13,310.21 Z" id="Path" fill="#FFF3F3" fill-rule="nonzero"></path>
                <ellipse id="Oval" fill="#0A2B35" fill-rule="nonzero" opacity="0.35" cx="508.41" cy="348.26" rx="31.49" ry="8.95"></ellipse>
                <ellipse id="Oval" fill="#0A2B35" fill-rule="nonzero" opacity="0.35" cx="508.11" cy="347.59" rx="28.47" ry="8.09"></ellipse>
                <circle id="Oval" fill="#000000" fill-rule="nonzero" cx="188.56" cy="55.29" r="3.15"></circle>
                <circle id="Oval" fill="#000000" fill-rule="nonzero" cx="163.92" cy="55.93" r="3.15"></circle>
                <circle id="Oval" stroke="#FFFFFF" cx="161.74" cy="54.95" r="11.38"></circle>
                <circle id="Oval" stroke="#FFFFFF" cx="189.69" cy="55.34" r="11.38"></circle>
                <path d="M166.05,81.58 C167.22,82.39 168.73,83.25 170.57,83.94 C175.19,85.65 179.36,85.26 181.61,84.86 C179.8,88.19 175.97,89.9 172.36,89.02 C168.9,88.19 166.34,85.17 166.05,81.58 Z" id="Path" fill="#9B3C0D" fill-rule="nonzero"></path>
            </g>
            <g id="boy" transform="translate(701.000000, 0.000000)">
                <path d="M157.08,671.23 C164.83,681.92 175.95,694.44 191.71,705.4 C204.1,714.02 215.59,719.46 220.37,721.65 C235.71,728.66 251.92,733.58 262.88,745.84 C265.32,748.57 267.76,752.05 267.22,755.84 C266.65,759.79 263.17,761.63 257.95,767.16 C254.08,771.26 251.47,775.05 249.92,777.5 C254.9,777.73 258.49,776.79 260.59,776.06 C266.95,773.86 271.75,769.37 289.37,745.14 C291.23,742.58 292.72,740.47 293.68,739.11 C290.45,736.79 285.85,733.09 281.24,727.75 C272.1,717.2 268.44,706.66 267.17,703.19 C262.79,691.23 253.04,671.01 231.04,634.43 C206.38,646.71 181.73,658.97 157.08,671.23 Z" id="Path" fill="#FFB8B8" fill-rule="nonzero"></path>
                <path d="M256.54,693.27 C257.5,692.47 258.41,691.62 259.34,690.78 C259.97,690.22 260.53,689.54 261.16,688.95 C261.13,688.9 261.11,688.86 261.09,688.81 C255.67,677.87 252.75,672.4 251.5,670.08 C248.95,665.34 247.64,663.08 244.36,657.24 C241.33,651.83 236.96,643.96 231.66,634.14 L182.93,650.47 C206.82,653.56 231.66,673.72 250.53,693.11 C251.56,694.17 252.54,695.2 253.54,696.25 C254.3,695.07 255.52,694.12 256.54,693.27 Z" id="Path" fill="#DF9A9A" fill-rule="nonzero"></path>
                <path d="M171.39,657 C178.02,681.12 187.75,708.66 198.84,708.37 C202.74,708.27 205.02,704.78 208.82,701.28 C216.98,693.78 231.83,686.55 261.18,689.07 C255.39,677.6 249.18,665.88 242.54,653.96 C238.8,647.26 235.05,640.71 231.29,634.31 C211.32,641.88 191.35,649.44 171.39,657 Z" id="Path" fill="#C98B8B" fill-rule="nonzero" opacity="0.49"></path>
                <path d="M224.21,723.36 C232.18,726.58 251.53,734.93 262.45,746.01 C265.26,748.86 267.56,751.95 267.28,755.45 C266.94,759.53 263.31,761.5 258.48,766.75 C255.93,769.52 252.46,773.86 249.24,780.17 C254.98,778.17 258.97,775.67 261.41,773.91 C272.12,766.18 274.13,757.56 287.81,743.7 C290.04,741.44 291.94,739.69 293.07,738.68 C291.89,737.81 290.39,736.66 288.71,735.21 C288.71,735.21 286.43,733.25 284.56,731.35 C280.65,727.38 277.69,722.17 276.4,719.85 C272.74,713.25 271.36,709.71 267.83,702.3 C266.31,699.12 264,694.39 260.97,688.65" id="Path" fill="#CEF0F4" fill-rule="nonzero"></path>
                <path d="M298.23,742.01 C297.83,741.55 297.85,741.63 295.48,739.56 C293.63,737.95 292.99,737.35 292.26,737.52 C291.72,737.64 291.41,738.12 291.24,738.38 C290.21,739.93 288.57,741.83 285.29,745.64 C284.43,746.64 283.78,747.28 282.56,748.46 C280.34,750.6 275.63,754.55 269.29,759.34 C269.33,758.85 270.33,757.68 270.33,757.68 C269.08,757.62 267.4,757.72 265.61,758.44 C264.98,758.69 264.39,759 263.77,759.39 C258.49,762.75 251.82,772.21 248.04,779.03 C247.89,779.31 247.65,779.75 247.83,780.07 C248.53,781.32 254.86,779.16 261.07,776.68 C264.47,775.33 267.14,773.91 268.96,772.93 C269.68,772.54 271,771.78 273.64,770.26 C279.21,767.04 281.43,765.65 282.19,765.06 C282.19,765.06 282.18,765.05 282.18,765.03 C282.04,764.77 281.92,764.61 281.81,764.44 C281.54,764.05 281.52,763.95 281.47,763.96 C281.38,763.98 281.37,764.34 281.45,764.37 C281.5,764.39 281.57,764.28 281.79,764.07 C281.92,763.96 281.99,763.9 282.08,763.84 C282.77,763.36 285.84,760.65 285.84,760.65 C287.2,759.45 288.43,758.35 289.52,757.37 C289.58,757.42 289.72,757.54 289.78,757.59 C289.9,757.69 290.05,757.82 290.24,757.97 C295.33,753.26 298.89,749.6 299.44,748.56 C299.65,748.15 299.8,747.74 299.8,747.74 C300.12,746.86 300.19,746.01 300.17,745.49 C300.11,744.08 299.22,743.15 298.23,742.01 Z" id="Path" fill="#300404" fill-rule="nonzero"></path>
                <path d="M33.97,513.67 C32.25,519.96 16.05,596.2 204.02,711.84 C204.24,711.98 204.52,711.97 204.74,711.83 C207.36,710.01 224.29,697.37 247.03,660.79 C247.15,660.59 247.16,660.35 247.06,660.14 C243.57,653.36 186.83,544.07 130.72,500.39 C130.58,500.28 130.4,500.23 130.22,500.26 L34.51,513.2 C34.26,513.23 34.04,513.42 33.97,513.67 Z" id="Path" fill="#BADBDD" fill-rule="nonzero"></path>
                <path d="M287.46,403.11 C306.28,437.16 265.62,495.61 196.64,533.66 C127.66,571.71 56.49,574.96 37.67,540.91 C35.31,536.65 34.37,533.1 33.73,529.77 C25.51,486.91 80.75,434.63 128.48,410.35 C184.21,382.02 269.92,371.38 287.46,403.11 Z" id="Path" fill="#BADBDD" fill-rule="nonzero"></path>
                <path d="M153.65,653.36 C155.71,666.58 159.97,683.01 169.13,700.16 C176.33,713.65 184.19,723.86 187.49,728.04 C198.09,741.44 210.44,753.36 214.69,769.47 C215.63,773.05 216.23,777.32 213.99,780.49 C211.66,783.79 207.67,783.85 200.41,786.43 C195.03,788.35 190.92,790.56 188.39,792.06 C192.78,794.57 196.45,795.37 198.68,795.68 C205.43,796.63 211.84,794.79 238.9,781.06 C241.75,779.61 244.08,778.4 245.57,777.61 C243.73,774.02 241.29,768.57 239.58,761.63 C236.2,747.89 237.76,736.7 238.22,732.99 C239.79,720.18 240.32,697.44 237.34,654.29 C209.44,653.98 181.55,653.67 153.65,653.36 Z" id="Path" fill="#FFB8B8" fill-rule="nonzero"></path>
                <path d="M238.29,654.29 L239.23,765.13 C239.23,765.13 227,674.17 186.55,646.55 L238.29,654.29 Z" id="Path" fill="#DF9A9A" fill-rule="nonzero"></path>
                <path d="M238.61,674.64 C238.11,672.32 238.02,669.88 238.43,667.55 C238,665.27 237.76,662.95 237.93,660.68 C237.93,660.56 237.95,660.45 237.96,660.33 C237.2,658.6 236.53,656.85 236.33,654.99 C215.7,652.22 195.08,649.44 174.45,646.67 C168.71,671.36 164.08,700.59 174.14,705.68 C177.67,707.47 181.4,705.46 186.49,704.18 C197.41,701.44 214.19,702.15 239.22,718.56 C239.21,716.8 239.12,692.85 239.06,677.04 C238.83,676.25 238.69,675.45 238.61,674.64 Z" id="Path" fill="#C98B8B" fill-rule="nonzero" opacity="0.49"></path>
                <path d="M190.17,731.35 C195.87,737.93 209.48,754.39 214.22,769.42 C215.44,773.28 216.1,777.13 214.22,780.16 C212.03,783.69 207.85,783.78 201.07,786.29 C197.49,787.62 192.36,789.92 186.54,794.13 C192.64,794.97 197.39,794.55 200.41,794.09 C213.64,792.06 219.42,785.21 238.16,779.01 C241.22,778 243.73,777.3 245.22,776.9 C244.56,775.58 243.74,773.84 242.89,771.76 C242.89,771.76 241.74,768.94 240.93,766.37 C239.24,760.99 238.97,754.91 238.88,752.24 C238.62,744.59 239.01,740.77 239.24,732.46 C239.34,728.89 239.43,723.56 239.34,716.98" id="Path" fill="#CEF0F4" fill-rule="nonzero"></path>
                <path d="M263.34,125.84 C261.59,124.7 259.23,123.35 256.5,122.32 C254.55,121.58 253.21,121.3 252.41,121.17 C251.82,121.07 250.91,120.92 249.72,120.91 C248.13,120.9 246.7,121.15 245.49,121.49 C245.15,121.57 244.81,121.65 244.46,121.75 C243.05,122.14 241.79,122.64 240.68,123.17 C243.18,124.08 245.68,124.99 248.18,125.9 C248.8,126.17 249.7,126.54 250.82,126.88 C251.56,127.1 252.12,127.23 252.25,127.26 C256.11,128.16 259.62,130.47 259.62,130.47 C261.11,131.75 262.6,133.04 264.1,134.32" id="Path" fill="#000000" fill-rule="nonzero"></path>
                <path d="M248.35,782.32 C248.2,781.72 248.18,781.8 247,778.85 C246.08,776.54 245.78,775.71 245.04,775.53 C244.5,775.39 244,775.68 243.72,775.83 C242.07,776.75 239.72,777.71 235,779.64 C233.76,780.15 232.88,780.42 231.23,780.92 C228.24,781.82 222.17,783.21 214.24,784.61 C214.5,784.18 215.94,783.59 215.94,783.59 C214.84,782.96 213.28,782.28 211.33,782.1 C210.64,782.04 209.97,782.04 209.24,782.11 C202.92,782.71 192.54,788.16 185.99,792.57 C185.72,792.75 185.3,793.04 185.32,793.41 C185.38,794.86 192.08,795.83 198.83,796.46 C202.52,796.8 205.59,796.76 207.68,796.72 C208.5,796.7 210.05,796.63 213.14,796.47 C219.65,796.14 222.29,795.9 223.25,795.73 C223.25,795.73 223.25,795.71 223.25,795.7 C223.24,795.4 223.21,795.21 223.19,795 C223.13,794.53 223.15,794.42 223.1,794.41 C223.01,794.39 222.83,794.7 222.9,794.77 C222.94,794.81 223.05,794.74 223.35,794.66 C223.52,794.62 223.61,794.6 223.72,794.59 C224.57,794.48 228.58,793.45 228.58,793.45 C230.36,793 231.97,792.57 233.41,792.19 C233.44,792.26 233.51,792.44 233.55,792.51 C233.61,792.66 233.69,792.84 233.78,793.07 C240.55,791.17 245.45,789.51 246.42,788.83 C246.8,788.56 247.12,788.26 247.12,788.26 C247.81,787.61 248.27,786.88 248.49,786.4 C249.09,785.06 248.72,783.81 248.35,782.32 Z" id="Path" fill="#300404" fill-rule="nonzero"></path>
                <path d="M110.52,440.08 C105.83,445.16 53.36,508.96 173.52,709.42 C173.66,709.66 173.93,709.79 174.2,709.76 C177.55,709.32 199.64,705.7 238.88,682.4 C239.09,682.28 239.22,682.05 239.22,681.8 C239.25,673.72 239.31,543.25 207.93,474.8 C207.85,474.63 207.71,474.5 207.53,474.43 L111.26,439.9 C111,439.8 110.71,439.87 110.52,440.08 Z" id="Path" fill="#E8FFFD" fill-rule="nonzero"></path>
                <path d="M129.92,496.68 C129.92,496.68 202.07,529.41 234.3,593.35 C234.3,593.35 234.3,578.52 222.54,517.14 L129.92,496.68 Z" id="Path" fill="#052528" fill-rule="nonzero" opacity="0.35"></path>
                <path d="M207.93,474.79 C207.93,474.79 232.17,512.51 238.86,658.81 C238.86,658.81 195.7,478.49 171.81,461.62 L207.93,474.79 Z" id="Path" fill="#052528" fill-rule="nonzero" opacity="0.25"></path>
                <path d="M429.27,422.76 C429.27,422.76 435.4,379.51 436.99,339.77 C438.65,298.27 417.86,258.7 381.92,237.88 C363.88,227.43 344.11,223.01 327.9,236.77 L327.9,439.85 L364.39,496.68 L410.17,460.19 L429.27,422.76 Z" id="Path" fill="#62A5A5" fill-rule="nonzero"></path>
                <path d="M300.3,140.31 C299.55,138.99 298.26,137.13 296.15,135.53 C295.76,135.23 295.32,134.94 294.83,134.66 C294.54,134.92 294.14,135.09 293.63,135.07 C288.74,134.85 283.89,134.21 279.04,133.59 C276.49,133.7 273.94,133.61 271.44,132.87 C271.05,132.87 270.67,132.86 270.28,132.85 C269.73,132.85 269.32,132.66 269.02,132.36 C268.91,132.31 268.79,132.26 268.69,132.2 C268.03,132.12 267.37,132.05 266.71,131.93 C266.67,131.92 266.64,131.9 266.6,131.89 C261.87,131.47 256.23,130.22 251.8,126.8 C247.73,123.66 244.46,118.51 238.81,109.6 C237.74,107.91 235.82,104.8 235.11,105.1 C234.49,105.36 235.04,108.07 235.63,110.42 L211.45,121.88 C209.58,122.77 208.72,124.96 209.51,126.88 L210.8,130.06 C210.87,130.24 210.94,130.43 210.99,130.62 C215.28,146.73 189.92,168.43 178.01,177.57 C175.77,179.29 176.69,182.91 179.49,183.26 C222.19,188.72 278.34,160.46 301.68,147.58 C305.25,145.62 300.3,140.31 300.3,140.31 Z" id="Path" fill="#FFB8B8" fill-rule="nonzero"></path>
                <path d="M199.79,53.84 C196.2,61.35 186.06,62.52 185.56,62.57 C180.1,63.11 175.93,61.09 174.47,60.29 C167,56.22 159.33,45.45 163.59,36.52 C167.58,28.18 178.92,25.29 188.92,30.07 C198.91,34.85 203.78,45.49 199.79,53.84 Z" id="Path" fill="#330C0C" fill-rule="nonzero"></path>
                <path d="M201.34,145.12 C205.46,139.01 209.88,136.78 211.2,136.22 C211.39,136.14 211.6,136.23 211.67,136.42 L212.53,138.81 L213.43,141.22 C213.49,141.39 213.43,141.57 213.27,141.65 C212.37,142.1 209.41,143.83 206.42,148.18" id="Path" fill="#000000" fill-rule="nonzero"></path>
                <path d="M262.04,75.16 C258.2,83.18 248.44,84.94 247.95,85.01 C242.7,85.86 238.81,83.98 237.45,83.22 C230.52,79.37 223.74,68.55 228.3,59.02 C232.56,50.11 243.57,46.5 252.89,50.95 C262.21,55.41 266.3,66.25 262.04,75.16 Z" id="Path" fill="#330C0C" fill-rule="nonzero"></path>
                <path d="M418.74,440.31 C418.74,440.31 424.87,397.06 426.46,357.32 C428.12,315.82 407.33,276.25 371.39,255.43 C353.35,244.98 333.58,240.56 317.37,254.32 L317.37,457.4 L353.86,514.23 L399.64,477.74 L418.74,440.31 Z" id="Path" fill="#588988" fill-rule="nonzero"></path>
                <path d="M238.76,109.05 C238.01,108.12 237.22,107.14 236.38,106.1 C235.1,104.5 232.8,101.57 232.09,101.94 C231.48,102.26 232.31,104.94 233.15,107.25 L209.64,120.97 C208.94,121.62 208.27,122.25 207.61,122.86 C207.03,123.97 206.99,125.32 207.62,126.49 L209.28,129.56 C209.37,129.74 209.46,129.92 209.53,130.1 C211.42,135.04 210.35,140.82 207.64,146.76 C231.11,138.72 237.24,120.08 238.76,109.05 Z" id="Path" fill="#CC6666" fill-rule="nonzero"></path>
                <path d="M398.01,317.64 C382.04,254.2 360.44,199.89 338.8,155.35 C337.94,154.26 336.9,153.06 335.73,151.79 C335.5,152.99 334.3,153.97 333.08,153.05 C327.74,149.04 322.5,144.84 316.8,141.35 C315.37,140.48 313.92,139.67 312.44,138.93 C312.17,138.99 311.87,139 311.53,138.92 C308.38,138.17 305.24,137.35 302.1,136.55 C291.24,134.68 280.01,135.23 269.04,133.81 C268.88,133.84 268.74,133.88 268.55,133.87 C266.68,133.77 264.72,133.33 262.94,132.78 C261.81,132.43 261.47,131.45 261.68,130.59 C260.78,130.54 259.87,130.48 258.96,130.43 C257.45,133.13 250.78,144.35 236.38,149.29 C221.88,154.26 209.64,149.38 206.82,148.17 C204.91,150.43 201.96,153.7 197.96,157.22 C193.8,160.89 190.16,163.36 186.57,165.56 C186.51,165.91 186.34,166.26 185.99,166.57 C185.81,166.72 185.63,166.88 185.46,167.03 C185.45,167.12 185.44,167.2 185.41,167.28 C185.42,167.87 185.18,168.48 184.59,168.91 C183.71,169.54 182.85,170.19 182,170.86 C180.76,171.87 179.55,172.92 178.34,173.98 C178.37,174.45 178.23,174.92 177.8,175.27 C172.85,179.32 167.95,183.44 163.41,187.95 C159.43,191.91 155.71,196.16 152.66,200.89 C150.17,204.75 148.25,208.89 146.73,213.21 C145.62,217.53 144.45,221.84 143.37,226.17 C142.63,230.18 142.08,234.23 141.55,238.29 L166.05,219.59 C166.05,219.59 157.58,279.24 187.31,396.94 L196.17,417.08 L414.12,398.3 C410.37,372.99 405.15,345.99 398.01,317.64 Z" id="Path" fill="#FFFFFF" fill-rule="nonzero"></path>
                <path d="M258.97,130.44 C270.52,162.91 282.83,207.51 287.66,261.6 C291.97,309.88 289.08,351.82 284.4,384.52 C283.81,388.68 283.18,392.69 282.54,396.54 C312.84,396.66 333.7,405.41 344.6,411.07 C361.76,419.99 375.87,432.55 385.18,440.83 C393.11,447.88 399.31,454.23 403.59,458.82 C407.73,445.97 412.13,429.23 414.84,409.34 C419.09,378.19 417.32,353.13 415.86,339.79 C414.34,325.89 411.36,308.2 405.29,288.23 C383.75,241.98 362.21,195.72 340.67,149.47 L326.1,143.08 L323.11,140.14 L310.83,135.21 L304.32,133.58 L300.07,133.12 C286.38,132.24 272.68,131.34 258.97,130.44 Z" id="Path" fill="#1C4147" fill-rule="nonzero"></path>
                <path d="M284.4,384.52 C284.4,384.52 367.79,418.93 408.54,371.36 C408.54,371.36 415.55,362.81 417.24,357.88 C417.24,357.88 415.76,333.15 412.9,319.48 C412.9,319.48 407.01,287.8 402.91,284.4 L285.44,383.71 L284.4,384.52 Z" id="Path" fill="#052528" fill-rule="nonzero" opacity="0.65"></path>
                <path d="M291.09,329.13 C288.24,351.6 285.4,374.08 282.55,396.55 C286.55,398.8 325.79,420.11 363.36,401.89 C400.05,384.1 420,335.97 405.3,288.25 C367.23,301.87 329.16,315.5 291.09,329.13 Z" id="Path" fill="#052528" fill-rule="nonzero" opacity="0.35"></path>
                <ellipse id="Oval" stroke="#000000" stroke-width="0.99997764" fill="#000000" fill-rule="nonzero" transform="translate(209.706692, 278.729208) rotate(-10.941360) translate(-209.706692, -278.729208) " cx="209.706692" cy="278.729208" rx="2.89993516" ry="7.6698285"></ellipse>
                <ellipse id="Oval" stroke="#000000" stroke-width="0.99997764" fill="#000000" fill-rule="nonzero" transform="translate(228.547100, 271.750012) rotate(-10.941360) translate(-228.547100, -271.750012) " cx="228.5471" cy="271.750012" rx="2.89993516" ry="7.6698285"></ellipse>
                <ellipse id="Oval" stroke="#000000" stroke-width="0.999986665" fill="#000000" fill-rule="nonzero" transform="translate(281.598399, 246.582903) rotate(-33.766345) translate(-281.598399, -246.582903) " cx="281.598399" cy="246.582903" rx="2.89996133" ry="7.66989772"></ellipse>
                <path d="M242.5,93.52 C241.65,99.67 238.87,120.13 221.31,129.12 C210.08,134.87 197.35,133.87 188.32,129.97 C185.76,128.86 181.11,126.79 177.07,122.04 C170.54,114.36 170.24,105.13 170.17,102.77 C170.1,100.52 170.29,98.81 170.52,96.71 C171.01,92.28 171.74,90.25 173.58,81.03 C173.96,79.15 174.14,78.21 174.26,77.53 C176.55,64.41 172.99,60.56 175.99,54.23 C178.02,49.94 182.72,45.25 187.07,45.53 C189.59,45.69 190.97,47.46 193.89,46.72 C195.76,46.25 196.95,45.08 199.35,45.19 C200.56,45.24 201.44,45.59 201.74,45.7 C206.27,47.37 221.76,46.82 227.31,48.43 C238.84,51.78 245.02,75.26 242.5,93.52 Z" id="Path" fill="#FFB8B8" fill-rule="nonzero"></path>
                <path d="M238.09,37.68 C234.34,38.09 233.58,45.15 230.68,49.47 C224.78,58.24 208.04,58.51 197.72,55.79 C182.9,51.88 166.46,38.14 167.97,23.05 C168.85,14.22 175.52,8.47 176.95,7.24 C187.01,-1.43 200.79,0.52 209.04,1.68 C215.05,2.52 219.2,4.2 222.23,5.45 C226.22,7.1 228.7,8.64 230.84,10.63 C231.53,11.27 232.51,12.19 233.53,13.63 C235.66,16.65 236.4,19.75 236.85,21.75 C237.61,25.05 237.27,26.18 238.56,27.99 C239.45,29.25 240.54,30.04 241.12,30.46 C243.06,31.87 244.57,32.13 246.36,32.76 C251.54,34.59 255.69,38.41 255.35,39.07 C255.28,39.21 255.02,39.2 254.88,39.2 C249.46,39.08 249.2,40.28 244.01,39.24 C239.42,38.33 239.63,37.51 238.09,37.68 Z" id="Path" fill="#330C0C" fill-rule="nonzero"></path>
                <path d="M260.15,57.93 C256.56,65.44 246.42,66.61 245.92,66.66 C240.46,67.2 236.29,65.18 234.83,64.38 C227.36,60.31 219.69,49.54 223.95,40.61 C227.94,32.27 239.28,29.38 249.28,34.16 C259.27,38.95 264.14,49.59 260.15,57.93 Z" id="Path" fill="#330C0C" fill-rule="nonzero"></path>
                <path d="M330.28,201.04 C330.28,201.04 311.87,230.71 306.07,292.77 C306.07,292.77 239.72,264.23 197.42,257.2 L193.41,264.03 L325.5,323.81 L344.94,215.38 L330.28,201.04 Z" id="Path" fill="#052528" fill-rule="nonzero" opacity="0.35"></path>
                <path d="M253.54,283.88 C264.22,287.76 275.54,292.32 287.32,297.71 C296.48,301.9 305.06,306.2 313.06,310.5 C312.73,300.12 312.83,289.01 313.57,277.25 C315.32,249.49 320.18,225.1 325.85,204.79 L301.3,133.18 C301.3,133.18 365.49,138.04 391.83,198.14 C399.87,216.49 403.46,231.1 405.64,246.64 C412.87,298.11 398.38,346.67 374.22,374.44 C365.13,384.89 357.02,389.7 349.88,392.33 C345.5,393.94 335.31,397 311.35,392.5 C311.35,392.5 265.16,383.82 233.78,354.48 C230.55,351.46 217.47,338.6 217.72,336.95 C217.64,335.03 221.68,337.35 221.87,337.19 C221.98,337.09 221.86,336.72 221.5,336.07 C221.5,336.07 221.5,336.07 221.5,336.07 C221.5,336.07 221.5,336.07 221.5,336.07 C221.47,335.97 219.87,330.61 219.97,324.82 C220.19,311.74 233.09,295.61 253.54,283.88 Z" id="Path" fill="#1C4147" fill-rule="nonzero"></path>
                <path d="M309.63,308.68 C309.63,308.68 332.71,321.57 337.61,325.08" id="Path" fill="#1C4147" fill-rule="nonzero"></path>
                <path d="M311.03,309.46 C311.03,309.46 325.42,316.88 332.7,321.95 C332.7,321.95 314.33,305.72 312.93,293.79 L313.07,310.51 L311.03,309.46 Z" id="Path" fill="#052528" fill-rule="nonzero" opacity="0.35"></path>
                <path d="M263.67,292.96 C258.57,288.06 244.47,294.46 232.18,307.25 C219.89,320.04 214.05,334.38 219.15,339.28 C224.25,344.18 238.35,337.78 250.64,324.99 C262.94,312.21 268.77,297.87 263.67,292.96 Z" id="Path" fill="#1C373A" fill-rule="nonzero"></path>
                <path d="M64.61,225.1 C60.84,224.51 55.49,224.76 42.79,232.14 C30.73,239.15 25.53,244.77 24.11,250.13 C23.95,250.72 23.8,251.48 24.17,252.16 C26.14,255.74 40.31,252.9 50.97,247.11 C58.07,243.26 65.18,237.25 68.21,232.52" id="Path" fill="#041C1E" fill-rule="nonzero"></path>
                <path d="M13.35,182.41 C10.88,178.09 9.1,174.37 7.9,171.7 C7.9,171.7 3.11,160.98 1.68,146.81 C1.68,146.81 1.26,144.43 2.05,143.75 C2.1,143.71 2.2,143.62 2.34,143.63 C2.85,143.65 3.15,144.92 3.17,145.04 C4.71,149.73 7,155.3 10.47,161.2 C12.62,164.85 14.85,168 16.98,170.68" id="Path" fill="#FFB8B8" fill-rule="nonzero"></path>
                <path d="M22.73,158.21 C23.16,158.04 24.04,157.73 24.58,156.87 C25.83,154.88 24.38,151.52 18.19,142.42 C11.27,132.25 11.1,131.05 11.41,130.76 C11.7,130.49 12.65,130.72 13.42,131.42 C15.37,133.2 17.39,135.14 19.43,137.25 C21.17,139.06 22.66,140.71 23.9,142.14 C23.9,142.14 31.58,151 38.39,162.26 C38.49,162.43 40.61,165.93 40.61,165.93 C40.61,165.93 40.61,165.93 40.61,165.93 C40.61,165.93 41.58,167.64 42,167.61 C42.75,167.55 42.89,161.7 42.87,156.09 C42.87,156.09 43.13,149.41 45.03,148.13 C45.2,147.97 45.5,147.73 45.95,147.56 C46.33,147.42 46.67,147.39 46.89,147.39 C46.85,147.6 46.81,147.82 46.77,148.03 C46.77,148.03 45.74,155.29 48.04,174.38 C48.04,174.38 51.59,194.34 49.82,200.8 C52.36,204.52 55.91,210.01 59.67,216.93 C67.63,231.58 71.6,238.9 70.5,245.3 C67.63,261.98 36.74,273.92 28.33,266.37 C25.15,263.51 27.44,258.94 27.23,243.43 C27.06,230.93 27.13,216.37 27.6,208.17 C24.58,203.45 21.53,198.37 18.52,192.94 C14.71,186.06 11.41,179.41 8.54,173.12 C15.03,163 19.61,159.43 22.73,158.21 Z" id="Path" fill="#FFB8B8" fill-rule="nonzero"></path>
                <path d="M22.09,175.47 C22.09,175.47 42.87,186.08 43.64,204.37 C43.64,204.37 45.17,184.04 22.09,175.47 Z" id="Path" fill="#E0AFAF" fill-rule="nonzero"></path>
                <path d="M51.88,203.82 C54.2,207.48 56.03,210.58 57.32,212.82 C60.65,218.58 63.5,223.55 66.34,230.21 C67.98,234.06 69.11,237.29 69.81,239.41 C64.32,243.91 59.1,245.96 55.76,248.01 C48.72,252.33 41.67,256.68 41.58,256.84 C41.4,257.14 63.87,240.02 51.88,203.82 Z" id="Path" fill="#CC9393" fill-rule="nonzero" opacity="0.49"></path>
                <path d="M55.76,210.15 C57.98,213.85 59.74,216.97 60.97,219.22 C64.15,225.03 66.88,230.04 69.56,236.74 C71.11,240.61 72.17,243.86 72.82,245.99 C67.36,250.41 62.21,252.38 58.89,254.38 C51.92,258.59 44.92,262.85 44.83,263 C44.67,263.31 66.98,246.52 55.76,210.15 Z" id="Path" fill="#C46C6C" fill-rule="nonzero"></path>
                <path d="M27.32,215.18 C27.63,215.17 27.95,215.16 28.27,215.14 C35.67,214.77 44.45,212.79 54.12,207.4 C55.26,209.08 56.36,210.89 57.4,212.84 C57.54,213.11 57.68,213.38 57.82,213.65 C54.64,215.53 50.42,217.61 45.24,219.18 C38.03,221.37 31.69,221.75 27.2,221.65 C27.1,220.56 27.05,219.33 27.1,217.99 C27.12,216.98 27.2,216.04 27.32,215.18 Z" id="Path" fill="#4C4429" fill-rule="nonzero"></path>
                <path d="M26.02,158.22 C18.69,149.42 11.35,140.62 4.02,131.82 C3.33,131.23 2.87,131.01 2.64,131.15 C1.43,131.92 6.89,143.18 19.01,164.92" id="Path" fill="#FFB8B8" fill-rule="nonzero"></path>
                <path d="M22.09,166.9 C15.41,157.59 8.73,148.29 2.05,138.98 C1.4,138.34 0.96,138.09 0.73,138.21 C-0.53,138.89 4.1,150.51 14.63,173.07" id="Path" fill="#FFB8B8" fill-rule="nonzero"></path>
                <path d="M170.19,175.47 C170.19,175.47 144.85,191.74 138.23,223.8 C138.13,224.31 125.86,272.7 111.93,274.74 C97.99,276.79 73.44,245.8 64.62,225.11 C64.62,225.11 49.4,243.8 23.96,251.22 C24.02,255.84 26.02,330.5 79.67,358.25 C87.87,362.49 100.57,367.34 117.95,367.97 C117.95,367.97 164.13,369.25 184.44,333.96 L187,219.39" id="Path" fill="#1C4147" fill-rule="nonzero"></path>
                <path d="M73.85,354.93 C73.85,354.93 136.36,394.86 184.42,335.39 L185.980011,264.02 C185.99,264.02 179.21,381.29 73.85,354.93 Z" id="Path" fill="#052528" fill-rule="nonzero" opacity="0.4"></path>
                <path d="M184.34,220.14 L184.43,333.94 C182.72,336.49 180.23,339.89 176.82,343.53 C172.75,347.88 161.58,359.63 143.44,364.53 C138.78,365.79 122.82,370.1 120.23,365.4 C116.67,358.95 145.13,347.82 156.72,319.37 C164.43,300.43 162.74,280.06 160.13,250.49 C159.06,238.34 157.15,226.52 160.47,209.91 C162.65,199.02 166.21,190.4 168.97,184.68 C174.1,196.5 179.22,208.32 184.34,220.14 Z" id="Path" fill="#052528" fill-rule="nonzero" opacity="0.35"></path>
                <path d="M206.84,148.17 C206.84,148.17 188.27,303.53 226.11,417.07 L187.75,420.64 C187.75,420.64 156.04,289.7 166.08,219.58 L169.7,175.93 C174.14,173 177.84,170.72 180.42,169.16 C185.2,166.27 187.3,165.17 191.25,162.43 C195.65,159.37 197.86,157.38 198.79,156.51 C200.48,154.94 202.2,153.15 203.27,152.03 C204.75,150.48 205.96,149.15 206.84,148.17 Z" id="Path" fill="#1C4147" fill-rule="nonzero"></path>
                <path d="M206.42,148.17 C199.71,157.95 192.85,181 208.93,232.63 C208.99,232.81 208.89,233.01 208.7,233.07 L203.83,234.59 C203.65,234.65 203.45,234.54 203.39,234.36 C186.92,181.49 193.62,156.53 201.33,145.11" id="Path" fill="#000000" fill-rule="nonzero"></path>
                <path d="M209.74,278.45 L199.17,281.86 C199.17,281.86 183.74,243.64 203.39,234.36 L208.92,232.63 C208.92,232.63 226.1,228.66 237.22,270.36 L228.49,272.47" id="Path" stroke="#000000"></path>
                <path d="M142.11,264.47 C138.39,263.31 135.27,262.24 132.91,261.41 C132.91,261.41 122.32,257.65 114.2,250.64 C113.95,250.43 113.88,250.16 113.88,250.16 C113.86,250.07 113.81,249.92 113.87,249.76 C113.95,249.54 114.21,249.39 114.52,249.37 C116.95,250.17 119.52,250.93 122.24,251.64 C126.47,252.75 130.49,253.57 134.23,254.19" id="Path" fill="#FFB8B8" fill-rule="nonzero"></path>
                <path d="M130.64,255.6 C130.64,255.6 114.1,248.44 108.65,242.13 C108.4,241.84 108.39,241.42 108.61,241.13 C108.85,240.81 109.31,240.72 109.68,240.94 C112.22,242.05 114.94,243.11 117.81,244.19 C122.25,245.87 127.46,247.65 130.52,248.09 C130.52,248.09 112.59,242.48 107.98,237.7 C107.68,237.46 107.57,237.07 107.69,236.75 C107.85,236.35 108.36,236.13 108.83,236.33 C123.69,240.83 132.77,242.06 132.77,242.08 C132.77,242.08 132.72,242.08 132.7,242.07 C128.8,241.64 118.97,235.43 118.97,235.43 C116.32,233.75 114.16,232.43 114.39,231.85 C114.45,231.71 114.87,231.5 115.28,231.53 C115.42,231.54 115.54,231.57 115.62,231.6 C116.4,231.76 117.58,232.01 119,232.34 C122.64,233.2 125.29,234.03 126.43,234.39 C129.02,235.19 132.85,236.31 138.17,237.66 C138.17,237.66 147.98,239.96 157.12,240.43 C157.52,240.45 158.34,240.45 159.63,240.59 C160.45,240.68 160.65,240.73 160.68,240.67 C161.04,239.92 148.18,233.08 146.84,229.51 C146.79,229.39 146.73,229.19 146.73,228.93 C146.73,228.72 146.78,228.55 146.82,228.44 C150.91,229.72 155.3,231.32 159.9,233.34 C168.32,237.04 175.38,241.23 181.11,245.19 C182.36,246.04 183.75,247.12 185.17,248.47 C187.11,250.32 188.57,252.17 189.63,253.74 C189.63,253.74 265.7,287.23 268.41,289.57 C271.12,291.91 258.39,333.11 226.82,340.64 C226.82,340.64 214.35,333.68 176.75,271.71 C170.21,270.97 163.03,269.82 155.35,268.04 C150.1,266.83 145.21,265.46 140.69,264.02" id="Path" fill="#FFB8B8" fill-rule="nonzero"></path>
                <path d="M196.28,256.69 C196.28,256.69 264.28,286.94 271.25,290.76 L271.63,295.58 L273.32,300.18 L273.93,303.42 L273.08,306.23 L271.2,307.86 L270.01,309.640002 C270.01,309.65 223.57,271.34 196.28,256.69 Z" id="Path" fill="#CC9393" fill-rule="nonzero" opacity="0.49"></path>
                <path d="M277.01,305.77 C277.3,304.87 277.59,303.98 277.86,303.08 C278.67,300.46 279.44,297.8 280.44,295.23 C270.54,290.26 260.3,285.31 249.72,280.41 C237.85,274.91 226.22,269.78 214.85,264.99 C233.32,275 260.55,295.92 276.16,308.35 C276.45,307.49 276.72,306.62 277.01,305.77 Z" id="Path" fill="#C46C6C" fill-rule="nonzero" opacity="0.54"></path>
                <path d="M115.82,231.81 C119.64,232.75 122.74,233.59 124.86,234.18 C128.78,235.27 130.66,235.89 134.79,237.01 C137.85,237.85 140.36,238.47 141.99,238.87 C140.23,238.52 137.83,238.02 134.98,237.33 C131.48,236.48 128.9,235.74 125.5,234.75 C122.94,234.02 119.65,233.03 115.82,231.81 Z" id="Path" fill="#F7E2E2" fill-rule="nonzero"></path>
                <path d="M109.51,241.32 C109.51,241.32 123.73,247.93 136.360006,250.03 C136.37,250.03 124.83,249.03 109.51,241.32 Z" id="Path" fill="#F7E2E2" fill-rule="nonzero"></path>
                <path d="M114.86,249.78 C114.86,249.78 126.36,254.69 136.600008,255.35 C136.61,255.35 127.24,255.64 114.86,249.78 Z" id="Path" fill="#F7E2E2" fill-rule="nonzero"></path>
                <path d="M108.84,236.77 C108.84,236.77 124.18,242.07 137.39,243.000012 C137.38,243.000012 125.42,243.05 108.84,236.77 Z" id="Path" fill="#F7E2E2" fill-rule="nonzero"></path>
                <path d="M403.75,460.28 C404.8,501.48 338.04,536.62 254.62,538.75 C171.2,540.88 102.73,509.21 101.67,468.01 C101.54,462.85 102.39,459.06 103.41,455.62 C116.62,411.3 194.08,389.08 250.8,389.54 C317.02,390.07 402.77,421.89 403.75,460.28 Z" id="Path" fill="#E8FFFD" fill-rule="nonzero"></path>
                <path d="M221.59,692.02 C221.45,690.94 221.31,689.85 221.17,688.77 C211.04,623.37 189.94,559.78 158.47,499.76 L157.68,498.25 L159.32,498.73 C195.3,509.18 276.92,526.92 359.27,489.35 C376.28,481.59 391.04,472.52 403.72,463.17 C403.68,463.72 403.64,464.28 403.6,464.83 C391.09,474.06 376.57,483 359.87,490.67 C278,528.29 196.67,510.95 160.54,500.59 C191.66,560.32 212.54,623.54 222.61,688.55 C222.75,689.47 222.89,690.38 223.03,691.3 C222.54,691.54 222.07,691.78 221.59,692.02 Z" id="Path" fill="#9BE7E7" fill-rule="nonzero"></path>
                <path d="M259.63,130.47 C269.31,137.33 283.71,156.58 286.46,210.59 C286.47,210.78 286.63,210.93 286.82,210.920472 L291.91,210.67 C292.1,210.66 292.25,210.49 292.24,210.3 C289.42,155 274.51,133.89 263.33,125.84" id="Path" fill="#000000" fill-rule="nonzero"></path>
                <path d="M289.45,209.31 C289.45,209.31 290.3,240.68 281.61,246.56" id="Path" stroke="#000000"></path>
                <path d="M188.36,6.34 C187.48,7.01 186.61,7.69 185.79,8.41 C184.95,9.11 184.13,9.84 183.35,10.61 C181.79,12.14 180.32,13.75 179.11,15.54 C177.88,17.31 176.92,19.26 176.44,21.34 C175.96,23.43 176.1,25.64 176.76,27.76 C176.25,26.78 175.9,25.71 175.69,24.59 C175.53,23.47 175.54,22.33 175.69,21.2 C176.02,18.94 177.03,16.83 178.29,14.97 C179.58,13.12 181.13,11.47 182.84,10.04 C184.55,8.62 186.38,7.33 188.36,6.34 Z" id="Path" fill="#FFFFFF" fill-rule="nonzero"></path>
                <path d="M3.17,145.04 C3.17,145.04 9.82,161.34 12.63,164.03 C12.63,164.03 8.03,159.81 3.17,145.04 Z" id="Path" fill="#FCDBDB" fill-rule="nonzero"></path>
                <path d="M1.06,138.64 C1.06,138.64 13.99,158.34 18.64,161.21 C18.64,161.21 11.06,156.74 1.06,138.64 Z" id="Path" fill="#FCDBDB" fill-rule="nonzero"></path>
                <path d="M3.17,131.38 C6.34,135.32 9.55,139.28 12.82,143.25 C16.8,148.08 20.76,152.84 24.71,157.51 C20.59,153.61 16.16,148.93 11.73,143.38 C8.41,139.21 5.58,135.16 3.17,131.38 Z" id="Path" fill="#FCDBDB" fill-rule="nonzero"></path>
                <path d="M285.02,297.5 C284.75,296.99 284.39,296.66 282.12,295.5 C281.35,295.11 281.84,295.29 279.94,294.29 C278.6,293.59 274.66,291.89 272.85,291.07 C270.06,289.81 268.25,288.85 268.05,289.17 C267.99,289.26 268.09,289.42 268.11,289.46 C268.95,290.91 267.79,295.7 267.42,297.14 C266.69,299.95 265.77,302.25 264.92,304.36 C264.82,304.62 264.73,304.84 264.67,304.98 C264.67,304.98 264.67,304.98 264.67,304.99 C264.67,304.99 258.21,322.22 240.95,334.03 C236.16,337.31 232.18,338.87 231.01,339.3 C229.54,339.85 228.28,340.24 227.4,340.48 C225.29,341.04 224.3,341.13 223.79,341.09 C223.71,341.08 223.26,341.04 222.7,341.15 C222.38,341.21 221.95,341.3 221.9,341.44 C221.67,342.15 227.4,344.93 229.51,345.5 C239.5,348.19 250.58,339.21 255.53,334.66 C255.53,334.66 265.01,329.59 282.55,305.12 C282.55,305.13 286.26,299.9 285.02,297.5 Z" id="Path" fill="#1C4147" fill-rule="nonzero"></path>
                <path d="M264.5,538.34 C264.5,538.34 422.01,480.99 431.22036,402.22 C431.22036,402.23 432.6,552.32 264.5,538.34" id="Path" fill="#478B8E" fill-rule="nonzero"></path>
                <path d="M282.85,530.94 C294.76,531.46 328.88,531.38 363.02,508.95 C401.07,483.96 414.14,447.64 417.57,436.89 C404.69,451.11 375.9,481.33 345.84,498.96 C340.51,502.09 326.42,509.93 309.36,518.42 C298.5,523.82 289.33,528.04 282.85,530.94 Z" id="Path" fill="#61AAA8" fill-rule="nonzero"></path>
                <path d="M332.34,783.33 L300.6,783.33 C299.9,783.33 299.34,782.76 299.34,782.07 L299.34,720.61 C299.34,719.91 299.91,719.35 300.6,719.35 L332.34,719.35 C333.04,719.35 333.60013,719.92 333.60013,720.61 L333.60013,782.07 C333.61,782.76 333.04,783.33 332.34,783.33 Z" id="Path" fill="#2B6363" fill-rule="nonzero"></path>
                <ellipse id="Oval" fill="#54918F" fill-rule="nonzero" cx="316.47" cy="721.17" rx="17.13" ry="5.97"></ellipse>
                <path d="M305.39,721.22 C305.28,661.29 305.16,601.36 305.05,541.43 C305.05,537.38 308.33,534.1 312.38,534.1 L320.57,534.1 C324.62,534.1 327.9,537.38 327.9,541.43 C327.9,601.47 327.9,661.51 327.9,721.56 C326.7,722.14 324.94,722.86 322.72,723.3 C320.56,723.73 318.92,723.71 317.19,723.68 C315.55,723.66 313.18,723.61 310.19,722.88 C308.15,722.38 306.52,721.73 305.39,721.22 Z" id="Path" fill="#478B8E" fill-rule="nonzero"></path>
            </g>
            <g id="Layer_29" transform="translate(258.000000, 64.000000)">
                <circle id="Oval" stroke="#FFFFFF" cx="615.62" cy="17.17" r="15.52"></circle>
                <circle id="Oval" stroke="#FFFFFF" cx="651.95" cy="16.2" r="15.52"></circle>
                <circle id="Oval" fill="#000000" fill-rule="nonzero" cx="646.45" cy="16.2" r="3.15"></circle>
                <circle id="Oval" fill="#000000" fill-rule="nonzero" cx="621.05" cy="16.2" r="3.15"></circle>
                <path d="M667.46,16.2 L689.76,17.84" id="Path" stroke="#FFFFFF"></path>
                <ellipse id="Oval" fill="#FFB8B8" fill-rule="nonzero" transform="translate(686.605600, 30.726040) rotate(-59.999272) translate(-686.605600, -30.726040) " cx="686.6056" cy="30.72604" rx="14.5796792" ry="10.319773"></ellipse>
                <path d="M632.8,19.36 C632.8,19.36 617.92,54.76 634.59,49.58 L632.8,19.36 Z" id="Path" fill="#F2C7C7" fill-rule="nonzero"></path>
                <path d="M629.98,54.04 C632.02,54.76 637.74,56.46 643.82,54 C645.69,53.25 647.18,52.27 648.32,51.34 C648.38,54.15 647.42,55.52 646.88,56.11 C644.11,59.19 637.06,58.83 629.98,54.04 Z" id="Path" fill="#491C1C" fill-rule="nonzero"></path>
                <path d="M632.66,19.21 C632.66,19.21 622.19,56.15 638.11,48.99 L632.66,19.21 Z" id="Path" fill="#FFB8B8" fill-rule="nonzero"></path>
                <path d="M0.86,60.49 C1.05,61.09 1.2,61.68 1.47,62.26 C1.7,62.85 1.96,63.43 2.18,64.03 L3.51,67.63 L3.48,67.47 C5.05,71.12 6.82,74.7 8.51,78.31 L8.54,78.37 L8.55,78.41 C8.64,78.98 8.64,79.64 8.27,80.2 C7.87,80.74 7.26,80.98 6.7,81.03 C6.13,81.09 5.57,80.98 5.05,80.81 C4.53,80.64 4.05,80.38 3.62,80.07 C4.58,80.51 5.65,80.77 6.62,80.55 C7.1,80.46 7.53,80.21 7.74,79.86 C7.94,79.5 7.92,79.02 7.81,78.56 L7.85,78.66 C6.85,76.92 5.94,75.13 5.07,73.32 C4.21,71.51 3.41,69.66 2.71,67.77 L2.68,67.61 L1.67,64.11 C1.5,63.52 1.36,62.93 1.2,62.33 C1,61.76 0.92,61.11 0.86,60.49 Z" id="Path" fill="#E5B6AA" fill-rule="nonzero"></path>
                <path d="M685.26,30.17 L688.51,21.52 C692.37,23.01 694.16,28.02 692.5,32.72 C690.82,37.5 686.16,40.28 682.19,38.88 L685.26,30.17 Z" id="Path" fill="#CC6666" fill-rule="nonzero"></path>
            </g>
        </g>
    </g>
</svg>