<svg height="512pt" viewBox="0 0 512 512.17658" width="512pt" xmlns="http://www.w3.org/2000/svg"><path d="m448.554688 198.621094-126.585938 69.382812-93.75 51.378906h-.089844l-.441406.265626c-13.503906 1.5-28.601562 9.355468-33.808594 46.167968-8.917968 64-26.835937 146.359375-53.582031 146.359375-3.652344.011719-7.269531-.648437-10.683594-1.941406-19.421875-7.414063-27.011719-34.867187-32.042969-53.40625-7.40625-29.453125-12.484374-59.441406-15.183593-89.6875-3.777344-28.074219-12.820313-55.179687-26.660157-79.890625-12.800781-24.011719-28.867187-45.460938-38.929687-71.0625-22.597656-57.644531-27.894531-134.886719 20.214844-180.964844 23.164062-21.324218 53.191406-33.660156 84.65625-34.78125 11-.617187 22.039062-.085937 32.929687 1.589844.085938-.089844.261719 0 .441406 0 23.8125 3.558594 46.390626 12.894531 65.761719 27.1875 3.089844 2.296875 6.003907 4.765625 8.828125 7.328125 1.503906-1.414063 3.089844-2.738281 4.679688-4.0625 24.46875-19.410156 54.429687-30.621094 85.628906-32.042969 37.441406-3.019531 74.46875 9.566406 102.3125 34.78125 43.339844 41.578125 43.339844 108.402344 26.304688 163.398438zm0 0" fill="#e4c05c"/><path d="m430.898438 198.621094-108.929688 69.382812-80.15625 51.023438s-6.355469.089844-13.59375.355468h-.089844c-5.648437.175782-11.828125.441407-16.242187.707032-13.949219 1.058594-30.453125 8.914062-35.664063 45.726562-8.121094 58.261719-23.746094 131.792969-46.609375 144.417969-19.421875-7.414063-27.011719-34.867187-32.042969-53.40625-7.40625-29.453125-12.484374-59.441406-15.183593-89.6875-3.777344-28.074219-12.820313-55.179687-26.660157-79.890625-12.800781-24.011719-28.867187-45.460938-38.929687-71.0625-22.597656-57.644531-27.894531-134.886719 20.214844-180.964844 23.164062-21.324218 53.191406-33.660156 84.65625-34.78125 21.820312 1.128906 43.152343 6.875 62.589843 16.859375 10.042969 5.171875 19.363282 11.640625 27.71875 19.246094 2.824219-2.5625 5.738282-5.03125 8.824219-7.328125 1.589844-1.234375 3.269531-2.382812 4.945313-3.53125 1.855468 1.324219 3.621094 2.824219 6.003906 4.765625.882812.707031 1.675781 1.414063 2.558594 2.03125 24.46875-19.410156 54.429687-30.621094 85.628906-32.042969 31.464844 1.121094 61.492188 13.457032 84.65625 34.78125 43.34375 41.578125 43.34375 108.402344 26.304688 163.398438zm0 0" fill="#f9eab0"/><path d="m320.464844 78.917969c0 4.875-3.949219 8.828125-8.828125 8.828125-6.988281-.070313-13.933594-1.078125-20.65625-3-21.253907-6.558594-41.082031-17.070313-58.4375-30.984375-8.386719-6.359375-16.507813-13.15625-24.71875-19.6875-7.476563-6.101563-15.351563-11.707031-23.566407-16.773438-3.660156-2.25-7.433593-4.3125-11.300781-6.179687-3.089843-1.5-6.621093-2.117188-9.710937-3.707032-.96875-.527343-12.179688-2.382812-12.359375-3.707031-.261719-1.675781 1.324219-1.941406 3.710937-1.675781.085938-.089844.261719 0 .441406 0 1.234376.175781 2.644532.351562 4.058594.527344 20.300782 2.3125 40.011719 8.296875 58.175782 17.65625 2.917968 1.675781 5.746093 3.503906 8.472656 5.472656 1.855468 1.324219 3.621094 2.824219 6.003906 4.765625.882812.707031 1.675781 1.414063 2.558594 2.03125 6.21875 5.214844 12.703125 10.105469 19.421875 14.65625 16.773437 11.386719 36.988281 22.949219 57.90625 22.949219 2.34375 0 4.589843.929687 6.242187 2.585937 1.65625 1.65625 2.585938 3.902344 2.585938 6.242188zm0 0" fill="#e4c05c"/><path d="m42.042969 175.996094c-3.980469 0-7.46875-2.664063-8.515625-6.507813-23.703125-87.011719 37.207031-117.386719 37.796875-117.679687 4.359375-1.957032 9.488281-.09375 11.566406 4.210937 2.082031 4.304688.359375 9.480469-3.886719 11.679688-2.109375 1.050781-48.152344 24.875-28.441406 97.101562.726562 2.65625.171875 5.5-1.496094 7.6875-1.671875 2.191407-4.269531 3.472657-7.023437 3.472657zm0 0" fill="#fff"/><path d="m114.871094 44.3125c0 4.878906-3.953125 8.828125-8.828125 8.828125s-8.828125-3.949219-8.828125-8.828125c0-4.875 3.953125-8.824219 8.828125-8.824219s8.828125 3.949219 8.828125 8.824219zm0 0" fill="#fff"/><path d="m501.871094 329.976562c-7.117188 15.046876-15.101563 29.664063-23.921875 43.785157-8.546875 15.195312-14.121094 31.882812-16.417969 49.167969-1.65625 18.609374-4.785156 37.058593-9.359375 55.171874-3.617187 13.328126-9.445313 34.074219-26.304687 34.074219-3.972657 0-7.679688-3-11.035157-8.121093-10.414062-15.800782-17.742187-52.082032-21.890625-81.917969-2.914062-20.304688-11.566406-26.132813-19.332031-27.71875-.882813-.179688-1.765625-.355469-2.648437-.441407h-.089844c-5.039063.367188-9.761719 2.601563-13.242188 6.265626-5.101562 6.21875-8.15625 13.867187-8.738281 21.894531-5.472656 39.371093-16.507813 90.039062-33.015625 90.039062-6.15625-.0625-11.90625-3.085937-15.449219-8.121093-5.238281-7.871094-8.898437-16.683594-10.769531-25.953126-5.03125-18.007812 10.417969-36.632812 8.300781-55.171874-2.339843-17.273438-7.910156-33.957032-16.421875-49.167969-8.8125-14.136719-16.828125-28.757813-24.007812-43.785157-13.859375-35.398437-17.128906-82.980468 12.445312-111.316406 12.09375-11.566406 10.152344-18.363281 26.746094-20.65625 4.359375-.605468 8.753906-.902344 13.152344-.882812 16.785156-.082032 33.289062 4.269531 47.847656 12.621094 4.691406 2.796874 9.097656 6.050781 13.152344 9.710937 13.308594-11.703125 29.820312-19.144531 47.40625-21.363281 10.054687-1.414063 20.273437-1.234375 30.277344.53125 15.324218 2.433594 29.5625 9.414062 40.871093 20.039062 29.660157 28.335938 26.394531 75.917969 12.445313 111.316406zm0 0" fill="#cbb292"/><path d="m475.390625 329.976562c-7.117187 15.046876-15.105469 29.664063-23.921875 43.785157-8.550781 15.195312-14.121094 31.882812-16.421875 49.167969-1.652344 18.609374-4.78125 37.058593-9.355469 55.171874-1.941406 9.261719-5.628906 18.070313-10.859375 25.953126-10.414062-15.800782-17.742187-52.082032-21.890625-81.917969-2.914062-20.304688-11.566406-26.132813-19.332031-27.71875-.90625-.199219-1.816406-.347657-2.738281-.441407-1.519532 0-3.007813-.292968-4.511719-.40625-4.230469-.332031-8.476563-.414062-12.71875-.25-4.148437.007813-8.289063.417969-12.359375 1.230469-1.84375.410157-3.625 1.066407-5.296875 1.949219-3.546875 2.058594-6.449219 5.0625-8.386719 8.675781-1.261718 2.292969-2.277344 4.710938-3.027344 7.214844-.46875 1.492187-.882812 3.007813-1.191406 4.535156-.46875 1.703125-.765625 3.449219-.882812 5.210938-4.148438 29.835937-11.476563 66.117187-21.980469 81.917969-5.242187-7.871094-8.898437-16.683594-10.769531-25.953126-4.574219-18.113281-7.703125-36.5625-9.355469-55.171874-2.339844-17.273438-7.910156-33.957032-16.421875-49.167969-8.8125-14.136719-16.828125-28.757813-24.011719-43.785157-13.859375-35.398437-17.125-82.980468 12.449219-111.316406 12.257812-11.386718 27.796875-18.613281 44.402344-20.65625 17.648437 2.226563 34.226562 9.699219 47.582031 21.449219 4.058594-3.730469 8.53125-6.988281 13.328125-9.710937 4.691406 2.796874 9.097656 6.050781 13.152344 9.710937 13.308594-11.703125 29.820312-19.144531 47.40625-21.363281 1.273437.085937 2.542968.261718 3.792968.53125 15.324219 2.433594 29.5625 9.414062 40.875 20.039062 29.660157 28.335938 26.390626 75.917969 12.445313 111.316406zm0 0" fill="#f5efca"/><path d="m410.816406 251.011719c-34.074218 0-64.804687-30.011719-66.425781-31.558594-3.480469-3.414063-16.914063-13.242187-13.5-16.773437 3.417969-3.53125 22.359375 4.566406 26.828125 7.0625 11.730469 6.550781 30.808594 23.613281 53.097656 23.613281 4.875 0 8.828125 3.953125 8.828125 8.828125s-3.953125 8.828125-8.828125 8.828125zm0 0" fill="#cbb292"/><g fill="#fff"><path d="m270.421875 318.480469c-3.757813.003906-7.109375-2.378907-8.339844-5.929688-15.316406-44.070312 6.257813-70.234375 19.796875-77.914062 4.234375-2.421875 9.628906-.957031 12.050782 3.277343 2.421874 4.230469.957031 9.625-3.273438 12.046876-1.21875.726562-26.023438 16.148437-11.902344 56.789062.941406 2.699219.519532 5.6875-1.136718 8.015625-1.65625 2.332031-4.335938 3.714844-7.195313 3.714844zm0 0"/><path d="m317.90625 229.695312c0 4.875-3.953125 8.824219-8.828125 8.824219s-8.828125-3.949219-8.828125-8.824219c0-4.878906 3.953125-8.828124 8.828125-8.828124s8.828125 3.949218 8.828125 8.828124zm0 0"/></g></svg>