<?xml version="1.0" encoding="UTF-8"?>
<svg width="81px" height="80px" viewBox="0 0 81 80" version="1.1" xmlns="http://www.w3.org/2000/svg" xmlns:xlink="http://www.w3.org/1999/xlink">
    <!-- Generator: Sketch 58 (84663) - https://sketch.com -->
    <title>user-dark</title>
    <desc>Created with Sketch.</desc>
    <defs>
        <linearGradient x1="50%" y1="0%" x2="50%" y2="100%" id="linearGradient-1">
            <stop stop-color="#F8AB76" offset="0%"></stop>
            <stop stop-color="#FF5098" offset="100%"></stop>
        </linearGradient>
    </defs>
    <g id="logo" stroke="none" stroke-width="1" fill="none" fill-rule="evenodd">
        <g id="A07" transform="translate(-355.000000, -607.000000)">
            <g id="user-dark" transform="translate(355.500000, 607.000000)">
                <rect id="Rectangle" fill="url(#linearGradient-1)" x="0" y="0" width="80" height="80" rx="40"></rect>
                <g id="icons8-user-male" opacity="0.9" transform="translate(19.500000, 15.000000)" fill="#000000" fill-rule="nonzero">
                    <path d="M16.5,0.4501955 C10.15,0.4501955 5,5.6001955 5,11.9501955 C5,12.8001955 5.65,13.4501955 6.5,13.4501955 L9.0996095,13.4501955 L9.2001955,13.4501955 C14.9501955,13.4501955 20.8,13.4501955 25,9.7001955 L25,9.75 C25.2,9.55 25.3998045,9.4001955 25.5498045,9.2001955 C26.0998045,8.6001955 27.0503905,8.4998045 27.6503905,9.0498045 C28.3003905,9.5998045 28.35,10.6 27.75,11.25 L27.0498045,11.9501955 C26.3998045,12.6001955 26.65,13.6998045 27.5,14.0498045 C28,14.2498045 28.5496095,14.3503905 29.0996095,14.4003905 C29.8496095,14.5003905 30.4501955,15.1003905 30.4501955,15.9003905 L30.4501955,19.2998045 C30.5001955,24.5498045 26.5001955,29.1 21.2001955,29.5 C15.4001955,29.9 10.55,25.2998045 10.5,19.5498045 C10.5,18.7498045 9.8996095,18.05 9.0996095,18 C8.2496095,17.95 7.5,18.65 7.5,19.5 C7.5,26.65 13.35,32.5 20.5,32.5 C27.45,32.5 33.15,27.0503905 33.5,20.1503905 L33.5,20 L33.5,13 L33.5,11.5 L33.5,11 C33.5,7.4 30.7998045,4.4498045 27.2998045,4.0498045 L27.0996095,3.75 C25.6496095,1.7 23.25,0.4501955 20.75,0.4501955 L16.5,0.4501955 Z M20.5,35 C12.3,35 4.7003905,39.4498045 0.6503905,46.549805 C0.2503905,47.249805 0.5001955,48.19961 1.2001955,48.59961 C1.4501955,48.74961 1.7001955,48.799805 1.9501955,48.799805 C2.4501955,48.799805 3,48.549805 3.25,48.049805 C6.8,41.849805 13.4,38 20.5,38 C27.6,38 34.2,41.849805 37.75,48.049805 C38.15,48.749805 39.099805,48.99961 39.799805,48.59961 C40.499805,48.19961 40.74961,47.249805 40.34961,46.549805 C36.2996095,39.4498045 28.7,35 20.5,35 Z" id="Shape"></path>
                </g>
            </g>
        </g>
    </g>
</svg>